<?xml version="1.0" encoding="UTF-8" standalone="no"?>
<!-- Created with Inkscape (http://www.inkscape.org/) -->

<svg
   width="210mm"
   height="297mm"
   viewBox="0 0 210 297"
   version="1.1"
   id="svg1"
   xml:space="preserve"
   inkscape:version="1.3.2 (091e20ef0f, 2023-11-25)"
   sodipodi:docname="celular2.svg"
   xmlns:inkscape="http://www.inkscape.org/namespaces/inkscape"
   xmlns:sodipodi="http://sodipodi.sourceforge.net/DTD/sodipodi-0.dtd"
   xmlns="http://www.w3.org/2000/svg"
   xmlns:svg="http://www.w3.org/2000/svg"><sodipodi:namedview
     id="namedview1"
     pagecolor="#ffffff"
     bordercolor="#000000"
     borderopacity="0.25"
     inkscape:showpageshadow="2"
     inkscape:pageopacity="0.0"
     inkscape:pagecheckerboard="0"
     inkscape:deskcolor="#d1d1d1"
     inkscape:document-units="mm"
     inkscape:zoom="2.9045061"
     inkscape:cx="397.65797"
     inkscape:cy="425.37353"
     inkscape:window-width="1920"
     inkscape:window-height="1015"
     inkscape:window-x="0"
     inkscape:window-y="0"
     inkscape:window-maximized="1"
     inkscape:current-layer="layer1" /><defs
     id="defs1" /><g
     inkscape:label="Layer 1"
     inkscape:groupmode="layer"
     id="layer1"><g
       id="g1"
       transform="matrix(0.26458333,0,0,0.26458333,15.789954,52.221031)"><path
         d="m 888.00011,428.99257 a 11.01956,11.01956 0 0 1 -2.15469,16.2265 l -53.77008,36.91677 -23.677,15.78467 a 6.50932,6.50932 0 0 1 -8.64865,-1.29413 v 0 a 6.50932,6.50932 0 0 1 1.76937,-9.75113 l 22.93281,-13.31582 40.02328,-38.11743 -25.72926,-27.63513 19.05871,-14.294 z"
         transform="translate(-215.03822,-86.11098)"
         fill="#a0616a"
         id="path1" /><polygon
         points="525.555,581.847 558.908,580.894 546.52,690.482 533.367,690.482 "
         fill="#a0616a"
         id="polygon1" /><path
         d="m 762.51106,811.85147 c -3.5071,1.60062 -6.44475,-11.36747 -9.403,-8.4603 -8.27476,8.13174 -20.94589,9.90248 -31.99089,6.35216 l 3.86555,-0.0432 a 5.17261,5.17261 0 0 1 -3.26034,-6.74068 v 0 a 5.17263,5.17263 0 0 1 3.58872,-3.20194 l 8.8002,-2.2 13.81756,-24.29985 14.10577,-0.95294 v 0 a 33.70033,33.70033 0 0 1 6.23289,28.749 c -1.28005,5.22455 -3.25617,9.65665 -5.75646,10.79776 z"
         transform="translate(-215.03822,-86.11098)"
         fill="#2f2e41"
         id="path2" /><polygon
         points="613.131,581.847 647.437,575.177 634.096,690.482 620.943,690.482 "
         fill="#a0616a"
         id="polygon2" /><path
         d="m 850.087,811.85147 c -3.5071,1.60062 -6.44476,-11.36747 -9.40305,-8.4603 -8.27475,8.13174 -20.94589,9.90248 -31.99089,6.35216 l 3.86555,-0.0432 a 5.17261,5.17261 0 0 1 -3.26034,-6.74068 v 0 a 5.17264,5.17264 0 0 1 3.58873,-3.20194 l 8.80019,-2.2 13.81757,-24.29985 15.0587,-1.90587 0.38035,0.622 a 38.82707,38.82707 0 0 1 4.1608,31.74873 c -1.25233,4.01256 -2.95695,7.18849 -5.01761,8.12896 z"
         transform="translate(-215.03822,-86.11098)"
         fill="#2f2e41"
         id="path3" /><path
         d="m 864.04754,395.97018 c -12.09554,1.68292 -20.4694,8.307 -23.8799,21.521 l -22.23309,-41.05 a 12.15492,12.15492 0 0 1 3.87324,-15.43663 v 0 a 12.15493,12.15493 0 0 1 16.51068,2.41678 z"
         transform="translate(-215.03822,-86.11098)"
         fill="#ffbf00"
         id="path4"
         style="fill:#800000" /><path
         d="m 887.34559,656.523 c -54.05791,23.9182 -109.38059,26.86134 -165.81075,11.43523 20.60644,-79.92158 44.93779,-152.18824 44.788,-211.55165 l 55.27025,-4.76467 8.50989,13.49128 a 299.3077,299.3077 0 0 1 41.07162,104.75947 z"
         transform="translate(-215.03822,-86.11098)"
         fill="#2f2e41"
         id="path5" /><circle
         cx="581.7785"
         cy="218.77888"
         r="28.58806"
         fill="#a0616a"
         id="circle5" /><polygon
         points="572.249,239.743 600.837,234.979 613.225,269.284 577.967,271.19 "
         fill="#a0616a"
         id="polygon5" /><path
         d="m 824.45186,456.40658 -38.62727,1.0881 -19.50179,2.72364 c -9.57274,-31.62118 -17.63171,-63.16988 1.90587,-89.57592 l 22.87045,-22.8704 34.30568,-0.95293 0.45443,0.25967 a 27.62567,27.62567 0 0 1 12.657,32.13956 c -8.51323,27.66455 -13.98155,53.7887 -14.06437,77.18828 z"
         transform="translate(-215.03822,-86.11098)"
         fill="#ffbf00"
         id="path6"
         style="fill:#800000" /><path
         d="m 765.36987,545.02957 -2.39609,32.74648 a 7.29408,7.29408 0 0 1 -6.78945,6.74565 v 0 a 7.29408,7.29408 0 0 1 -7.77722,-7.45156 l 0.76287,-32.04057 23.82338,-90.52886 0.95294,-55.27025 26.68219,-0.95293 -1.90587,63.84667 z"
         transform="translate(-215.03822,-86.11098)"
         fill="#a0616a"
         id="path7" /><path
         d="m 803.48728,403.0422 c -11.31253,-4.6001 -21.8779,-3.05952 -31.44686,6.67055 l 1.31094,-46.66577 a 12.15493,12.15493 0 0 1 11.08252,-11.42232 v 0 a 12.15493,12.15493 0 0 1 13.08133,10.35965 z"
         transform="translate(-215.03822,-86.11098)"
         fill="#ffbf00"
         id="path8"
         style="fill:#800000" /><path
         d="m 857.32813,432.10673 h -87.67 c 20.45167,-54.1569 27.04681,-104.53868 0,-147.705 0.46431,-12.96516 17.09344,-24.20477 30.00735,-22.96305 v 0 c 15.25177,1.46651 35.74679,12.67435 38.60394,27.72772 z"
         transform="translate(-215.03822,-86.11098)"
         fill="#2f2e41"
         id="path9" /><path
         d="m 577.92754,259.05823 h -3.99878 V 149.51291 A 63.40186,63.40186 0 0 0 510.52671,86.111 H 278.44027 a 63.40186,63.40186 0 0 0 -63.402,63.40193 v 600.97416 a 63.40186,63.40186 0 0 0 63.402,63.40191 h 232.08644 a 63.40186,63.40186 0 0 0 63.40205,-63.40193 V 337.03445 h 3.99878 z"
         transform="translate(-215.03822,-86.11098)"
         fill="#3f3d56"
         id="path10" /><path
         d="M 513.085,102.606 H 482.79 a 22.49485,22.49485 0 0 1 -20.82715,30.99055 H 329.00345 A 22.49483,22.49483 0 0 1 308.1763,102.606 h -28.29557 a 47.3478,47.3478 0 0 0 -47.34786,47.34774 v 600.09249 a 47.34781,47.34781 0 0 0 47.34786,47.3478 H 513.085 a 47.34781,47.34781 0 0 0 47.34787,-47.3478 V 149.95371 A 47.3478,47.3478 0 0 0 513.085,102.606 Z"
         transform="translate(-215.03822,-86.11098)"
         fill="#ffffff"
         id="path11" /><rect
         x="58.44466"
         y="110.2337"
         width="246"
         height="211"
         fill="#e6e6e6"
         id="rect11" /><circle
         cx="131.44466"
         cy="347.2337"
         r="18"
         fill="#ffbf00"
         id="circle11"
         style="fill:#800000" /><polygon
         points="132.945,338.234 129.945,338.234 129.945,345.734 122.445,345.734 122.445,348.734 129.945,348.734 129.945,356.234 132.945,356.234 132.945,348.734 140.445,348.734 140.445,345.734 132.945,345.734 "
         fill="#ffffff"
         id="polygon11" /><circle
         cx="226.44466"
         cy="347.2337"
         r="18"
         fill="#ffbf00"
         id="circle12"
         style="fill:#800000" /><rect
         x="439.98288"
         y="424.34467"
         width="3"
         height="18"
         transform="rotate(90,377.01926,282.77008)"
         fill="#ffffff"
         id="rect12" /><path
         d="m 405.6577,222.65953 h -19.4402 a 2.57738,2.57738 0 0 0 -2.57738,2.57738 v 8.53288 a 2.57738,2.57738 0 0 0 2.57738,2.57738 h 3.2215 v 12.78518 h 12.99715 v -12.78518 h 3.22152 a 2.57738,2.57738 0 0 0 2.57738,-2.57738 v -8.53288 a 2.57738,2.57738 0 0 0 -2.57735,-2.57738 z"
         transform="translate(-215.03822,-86.11098)"
         fill="#ffbf00"
         id="path12"
         style="fill:#ff5555" /><path
         d="m 425.12915,300.75246 a 99.945,99.945 0 0 1 -17.38745,-59.25632 2.10788,2.10788 0 0 0 -1.64531,-2.10349 v -3.687 h -20.53145 v 3.63579 h -0.2829 a 2.1067,2.1067 0 0 0 -2.104,2.10944 q 9e-5,0.0768 0.006,0.15334 2.42627,33.82122 -16.3857,60.66044 a 5.80592,5.80592 0 0 0 -1.05076,3.51846 l 2.245,69.4446 a 6.01162,6.01162 0 0 0 5.96021,5.80216 h 46.439 a 6.01372,6.01372 0 0 0 5.9638,-5.90449 l 0.86514,-67.425 a 12.16847,12.16847 0 0 0 -2.09136,-6.94793 z"
         transform="translate(-215.03822,-86.11098)"
         fill="#3f3d56"
         id="path13" /><path
         d="m 401.60513,225.43986 a 5.5606,5.5606 0 1 1 -11.1212,0"
         transform="translate(-215.03822,-86.11098)"
         opacity="0.2"
         style="isolation:isolate;fill:#800000"
         id="path14" /><path
         d="m 417.77775,323.81976 h -5.62341 a 14.75938,14.75938 0 0 0 -29.17437,0 h -5.62378 a 4.15,4.15 0 0 0 -4.10174,4.781 l 6.10828,39.70382 h 35.07457 l 7.41937,-39.57005 a 4.15007,4.15007 0 0 0 -4.07892,-4.9148 z"
         transform="translate(-215.03822,-86.11098)"
         fill="#ffbf00"
         id="path15"
         style="fill:#800000" /><rect
         x="58.44466"
         y="407.2337"
         width="246"
         height="211"
         fill="#e6e6e6"
         id="rect15" /><circle
         cx="131.44466"
         cy="644.2337"
         r="18"
         fill="#ffbf00"
         id="circle15"
         style="fill:#800000" /><polygon
         points="132.945,635.234 129.945,635.234 129.945,642.734 122.445,642.734 122.445,645.734 129.945,645.734 129.945,653.234 132.945,653.234 132.945,645.734 140.445,645.734 140.445,642.734 132.945,642.734 "
         fill="#ffffff"
         id="polygon15" /><circle
         cx="226.44466"
         cy="644.2337"
         r="18"
         fill="#ffbf00"
         id="circle16"
         style="fill:#800000" /><rect
         x="439.98288"
         y="721.34467"
         width="3"
         height="18"
         transform="rotate(90,377.01926,579.77008)"
         fill="#ffffff"
         id="rect16" /><path
         d="m 444.91088,643.24243 0.1358,10e-5 a 23.0403,23.0403 0 0 0 21.57285,-14.45016 75.41617,75.41617 0 1 0 -100.46553,41.31009 22.84324,22.84324 0 0 0 25.37,-4.7044 75.16747,75.16747 0 0 1 53.38688,-22.15563 z"
         transform="translate(-215.03822,-86.11098)"
         fill="#ffffff"
         id="path16" /><circle
         cx="191.13"
         cy="509.39493"
         r="24.906"
         fill="#f9a825"
         id="circle17" /></g></g></svg>
