<?xml version="1.0" encoding="UTF-8" standalone="no"?>
<!-- Created with Inkscape (http://www.inkscape.org/) -->

<svg
   width="210mm"
   height="297mm"
   viewBox="0 0 210 297"
   version="1.1"
   id="svg1"
   xml:space="preserve"
   inkscape:version="1.3.2 (091e20ef0f, 2023-11-25)"
   sodipodi:docname="drawing.svg"
   xmlns:inkscape="http://www.inkscape.org/namespaces/inkscape"
   xmlns:sodipodi="http://sodipodi.sourceforge.net/DTD/sodipodi-0.dtd"
   xmlns="http://www.w3.org/2000/svg"
   xmlns:svg="http://www.w3.org/2000/svg"><sodipodi:namedview
     id="namedview1"
     pagecolor="#ffffff"
     bordercolor="#000000"
     borderopacity="0.25"
     inkscape:showpageshadow="2"
     inkscape:pageopacity="0.0"
     inkscape:pagecheckerboard="0"
     inkscape:deskcolor="#d1d1d1"
     inkscape:document-units="mm"
     inkscape:zoom="1.5488348"
     inkscape:cx="419.02469"
     inkscape:cy="585.2787"
     inkscape:window-width="1920"
     inkscape:window-height="1015"
     inkscape:window-x="0"
     inkscape:window-y="0"
     inkscape:window-maximized="1"
     inkscape:current-layer="g1" /><defs
     id="defs1" /><g
     inkscape:label="Layer 1"
     inkscape:groupmode="layer"
     id="layer1"><g
       id="g1"
       transform="matrix(0.26458333,0,0,0.26458333,5.4665658,100.23616)"><path
         d="m 432.12988,567.97449 c -2.85009,22.33 -13.33008,42.76 -24.51025,62.44 -0.36963,0.67 -0.75,1.33 -1.13965,2 H 290.27979 c -2.3501,-0.61 -4.66993,-1.28 -6.98,-2 a 127.02725,127.02725 0 0 1 -36.68994,-18.05 c -42.75,-30.8 -59.20019,-89 -51.77,-141.15 4.62012,-32.4 18.83985,-65.48 46.52979,-82.93 14.62012,-9.23 33.3999,-12.23 50.23,-8.8 0.44043,0.08 0.88037,0.18 1.33008,0.27 14.48,3.26 27.37988,11.36 34.72021,24.41 13.19971,23.45 5.33985,52.5 -1.1499,78.6 -6.47021,26.1 -9.98047,57.34 8.7998,76.59 -6.20019,-18.25 -0.0801,-40.02 14.73,-52.36 11.18994,-9.31 26.77,-12.8 40.98,-9.91 1.35986,0.29 2.70019,0.62 4.02,1.02 a 44.59846,44.59846 0 0 1 9.16992,3.84 c 22.14986,12.37003 31.12007,40.86002 27.93013,66.03 z"
         fill="#f2f2f2"
         id="path1"
         transform="translate(-185.5,-267.58547)" /><path
         d="m 363.23,630.4145 c 3.21973,0.75 6.44971,1.41 9.69971,2 h -17.56985 c -2.30029,-0.62 -4.59033,-1.28 -6.85986,-2 q -7.48534,-2.34 -14.74023,-5.37 c -19.39991,-8.14 -37.27,-20.36 -50.79,-36.62 a 103.37091,103.37091 0 0 1 -16.02,-26.17 118.85639,118.85639 0 0 1 -8.19971,-33.49 c -2.4502,-23.6 0.0498,-47.85 4.71973,-71.03 a 296.45051,296.45051 0 0 1 23.16015,-69.47 q 1.905,-3.97494 3.93994,-7.9 a 1.54158,1.54158 0 0 1 1.02979,-0.88 1.77741,1.77741 0 0 1 1.33008,0.27 2.1062,2.1062 0 0 1 0.83008,2.78 293.03874,293.03874 0 0 0 -24.58008,66.96 c -5.31983,22.67 -8.33985,46.39 -7.31006,69.7 0.98,21.78 6.67041,43.2 19.58008,61.00994 11.79,16.26 28.06982,29.08 46.08008,37.81 A 169.131,169.131 0 0 0 363.23,630.4145 Z"
         fill="#ffffff"
         id="path2"
         transform="translate(-185.5,-267.58547)" /><path
         d="m 401.79,632.4145 h -5.18018 c -0.58007,-0.66 -1.14013,-1.33 -1.68994,-2 a 110.41123,110.41123 0 0 1 -23.24023,-49.66 107.73445,107.73445 0 0 1 9.29,-67.05 110.2407,110.2407 0 0 1 10.04,-16.62 c 1.35986,0.29 2.70019,0.62 4.02,1.02 a 106.05621,106.05621 0 0 0 -19.77,45.34 105.09492,105.09492 0 0 0 24.74035,86.97 c 0.57959,0.66998 1.17969,1.34002 1.79,2 z"
         fill="#ffffff"
         id="path3"
         transform="translate(-185.5,-267.58547)" /><path
         d="m 868.42938,615.40764 c 0.75219,5.8933 3.51805,11.28515 6.4687,16.47906 0.0975,0.17682 0.19794,0.351 0.30078,0.52783 h 30.66735 c 0.62024,-0.161 1.23248,-0.33782 1.84215,-0.52783 a 33.52491,33.52491 0 0 0 9.68315,-4.76373 c 11.2825,-8.12868 15.624,-23.48872 13.663,-37.25207 -1.21933,-8.55094 -4.97218,-17.28137 -12.28006,-21.88674 a 18.43729,18.43729 0 0 0 -13.25661,-2.32248 c -0.11624,0.0211 -0.23235,0.0475 -0.351,0.0713 a 13.67963,13.67963 0 0 0 -9.1633,6.44224 c -3.48365,6.18889 -1.40929,13.85571 0.30348,20.744 1.70761,6.88828 2.634,15.13308 -2.32243,20.21351 a 12.64393,12.64393 0 0 0 -14.70288,-16.4342 c -0.35889,0.0765 -0.71263,0.16363 -1.061,0.26921 a 11.77068,11.77068 0 0 0 -2.42011,1.01345 c -5.8457,3.26464 -8.21311,10.78367 -7.37122,17.42649 z"
         fill="#f2f2f2"
         id="path4"
         transform="translate(-185.5,-267.58547)" /><path
         d="m 886.61332,631.8867 c -0.84974,0.19794 -1.70219,0.37211 -2.55993,0.52783 h 4.637 c 0.60709,-0.16362 1.21147,-0.33782 1.81044,-0.52783 q 1.97553,-0.61758 3.89022,-1.41724 a 34.90012,34.90012 0 0 0 13.40442,-9.66469 27.28163,27.28163 0 0 0 4.228,-6.90674 31.36842,31.36842 0 0 0 2.164,-8.83864 62.85793,62.85793 0 0 0 -1.24562,-18.7461 78.23849,78.23849 0 0 0 -6.11239,-18.33442 q -0.50277,-1.04906 -1.03982,-2.08494 a 0.40684,0.40684 0 0 0 -0.27178,-0.23225 0.46908,0.46908 0 0 0 -0.351,0.0713 0.55587,0.55587 0 0 0 -0.21908,0.73369 77.33813,77.33813 0 0 1 6.48714,17.672 68.02194,68.02194 0 0 1 1.92926,18.39511 29.3506,29.3506 0 0 1 -5.16755,16.10164 32.4858,32.4858 0 0 1 -12.16137,9.97875 44.6366,44.6366 0 0 1 -9.42194,3.27257 z"
         fill="#ffffff"
         id="path5"
         transform="translate(-185.5,-267.58547)" /><path
         d="m 876.43662,632.41453 h 1.36714 c 0.15309,-0.17418 0.3009,-0.351 0.446,-0.52783 a 29.13962,29.13962 0 0 0 6.13352,-13.10618 28.43312,28.43312 0 0 0 -2.45181,-17.69573 29.095,29.095 0 0 0 -2.64975,-4.38633 c -0.35889,0.0765 -0.71263,0.16363 -1.061,0.26921 a 27.99,27.99 0 0 1 5.21767,11.96606 27.73652,27.73652 0 0 1 -6.5294,22.953 c -0.15291,0.17679 -0.31129,0.35362 -0.47237,0.5278 z"
         fill="#ffffff"
         id="path6"
         transform="translate(-185.5,-267.58547)" /><path
         d="m 592.00977,480.0937 h -95.981 l -1.01754,-29.5107 a 8.85956,8.85956 0 0 1 9.93091,-9.09863 l 55.85449,6.83936 h 0.007 a 31.29061,31.29061 0 0 1 31.2063,31.27 z"
         fill="#ffbf00"
         id="path7"
         transform="translate(-185.5,-267.58547)"
         style="fill:#aa0000" /><path
         d="m 549.23082,375.4145 h -66.94211 a 6.77712,6.77712 0 0 0 -6.77894,6.77894 v 66.94211 a 6.77713,6.77713 0 0 0 6.77894,6.77895 h 66.94211 a 6.77714,6.77714 0 0 0 6.779,-6.77895 v -66.94211 a 6.77713,6.77713 0 0 0 -6.779,-6.77894 z"
         fill="#cccccc"
         id="path8"
         transform="translate(-185.5,-267.58547)" /><path
         d="m 534.15445,425.47126 -31.60628,6.15492 a 7.2107,7.2107 0 0 1 -8.44659,-5.69307 L 491.672,413.45694 a 7.21069,7.21069 0 0 1 5.69307,-8.44658 l 31.60628,-6.15491 a 7.21069,7.21069 0 0 1 8.44659,5.69307 l 2.42957,12.47616 a 7.21068,7.21068 0 0 1 -5.69306,8.44658 z"
         fill="#3f3d56"
         id="path9"
         transform="translate(-185.5,-267.58547)" /><path
         d="m 527.831,410.73188 -24.12058,4.69717 a 1.6947485,1.6947485 0 0 1 -0.64789,-3.327 l 24.12059,-4.69717 a 1.6947476,1.6947476 0 0 1 0.64788,3.327 z"
         fill="#ffffff"
         id="path10"
         transform="translate(-185.5,-267.58547)" /><path
         d="m 523.14259,417.68789 -12.47616,2.42957 a 1.6947485,1.6947485 0 0 1 -0.64789,-3.327 l 12.47617,-2.42957 a 1.6947476,1.6947476 0 1 1 0.64788,3.327 z"
         fill="#ffffff"
         id="path11"
         transform="translate(-185.5,-267.58547)"
         style="fill:#800000" /><path
         d="m 556.00977,382.19344 v 8.89737 h -80.5 v -8.89737 a 6.77712,6.77712 0 0 1 6.77894,-6.77894 h 66.94211 a 6.77713,6.77713 0 0 1 6.77895,6.77894 z"
         fill="#b3b3b3"
         id="path12"
         transform="translate(-185.5,-267.58547)" /><path
         d="m 716.76052,393.87705 a 10.74267,10.74267 0 0 0 -15.19331,-6.3648 l -92.09655,-33.04273 -4.05633,23.00726 91.8034,25.2454 a 10.80091,10.80091 0 0 0 19.54279,-8.84513 z"
         fill="#ffb8b8"
         id="path13"
         transform="translate(-185.5,-267.58547)" /><path
         d="m 716.76052,393.87705 a 10.74267,10.74267 0 0 0 -15.19331,-6.3648 l -92.09655,-33.04273 -4.05633,23.00726 91.8034,25.2454 a 10.80091,10.80091 0 0 0 19.54279,-8.84513 z"
         opacity="0.2"
         id="path14"
         transform="translate(-185.5,-267.58547)" /><path
         d="m 625.81732,358.66188 -8.69674,22.72023 a 4.81688,4.81688 0 0 1 -6.86086,2.47581 l -21.13624,-11.89627 a 13.37737,13.37737 0 0 1 9.63746,-24.95856 l 23.6022,5.23464 a 4.81686,4.81686 0 0 1 3.45418,6.42415 z"
         fill="#ffbf00"
         id="path15"
         transform="translate(-185.5,-267.58547)"
         style="fill:#8d0000;fill-opacity:1" /><path
         d="m 724.00977,414.9145 -33,15 4.33259,16.311 a 253.73547,253.73547 0 0 1 6.53976,96.64985 v 0 l 24.12766,5.03915 20,-51 -7,-58 z"
         fill="#ffbf00"
         id="path16"
         transform="translate(-185.5,-267.58547)"
         style="fill:#aa0000" /><path
         d="m 788.75977,490.4145 c -21.68213,0 -39.35157,15.762 -40.209,35.5 h 80.418 c -0.85744,-19.73804 -18.52688,-35.5 -40.209,-35.5 z"
         fill="#3f3d56"
         id="path17"
         transform="translate(-185.5,-267.58547)" /><path
         d="m 771.88135,493.81605 c -1.12842,-89.09839 -51.87158,-80.90155 -51.87158,-80.90155 0,0 0.94921,27.73333 1.40527,28.59582 32.33545,61.17957 -21.03027,132.90381 -88.96,119.70886 q -1.92114,-0.37317 -3.69141,-0.75714 A 34.5813,34.5813 0 0 1 601.60035,521.6992 c 6.69158,-53.73562 -26.59062,-52.7847 -26.59062,-52.7847 h -48.66647 l -25.27335,-22.7459 a 7.3469,7.3469 0 0 0 -11.80868,2.92095 l -3.25146,8.825 c 0,0 -48,5 -44,52 h 14.83984 a 29.96684,29.96684 0 0 0 0.16016,4 l 110.75092,-0.90044 c 6.49187,-0.0528 12.22225,5.20768 12.249,11.69971 a 11.75308,11.75308 0 0 1 -12.14443,11.79594 l -17.85546,-0.59521 c -5.5,24.5 8,41 22.875,51.375 a 83.1484,83.1484 0 0 0 47.61766,14.625 h 48.50734 c 63,0 74,-53 74,-53 32.99997,-14.00005 28.87155,-55.0985 28.87155,-55.0985 z"
         fill="#3f3d56"
         id="path18"
         transform="translate(-185.5,-267.58547)" /><circle
         cx="600.25977"
         cy="307.07904"
         fill="#3f3d56"
         id="circle18"
         r="56.25" /><circle
         cx="600.25977"
         cy="307.07904"
         fill="#ffffff"
         id="circle19"
         r="13.78676" /><circle
         cx="316.25977"
         cy="298.57904"
         fill="#3f3d56"
         id="circle20"
         r="64.75" /><circle
         cx="316.25977"
         cy="298.57904"
         fill="#ffffff"
         id="circle21"
         r="15.8701" /><path
         d="M 691.10352,434.34663 679.23,402.09711 a 13.63843,13.63843 0 0 1 8.08691,-17.51074 l 34.04,-12.53125 a 23.99761,23.99761 0 0 1 30.812,14.22705 23.84491,23.84491 0 0 1 1.481,8.29248 24.1887,24.1887 0 0 1 -8.98779,18.73 23.81344,23.81344 0 0 1 -6.72022,3.78907 z"
         fill="#3f3d56"
         id="path21"
         transform="translate(-185.5,-267.58547)" /><path
         d="m 753.1499,394.57447 a 23.54938,23.54938 0 0 1 -8.80029,18.34 29.98827,29.98827 0 0 1 -19.69971,-41.3 23.50519,23.50519 0 0 1 28.5,22.96 z"
         fill="#ffbf00"
         id="path22"
         transform="translate(-185.5,-267.58547)"
         style="fill:#bb0000;fill-opacity:1" /><ellipse
         cx="265.00977"
         cy="231.82903"
         rx="14"
         ry="17"
         fill="#ffbf00"
         id="ellipse22"
         style="fill:#aa0000" /><polygon
         points="468.164,260.208 450.069,260.209 450.071,292.005 462.331,292.005 "
         fill="#ffb8b8"
         id="polygon22" /><path
         d="m 632.44363,555.58794 24.1438,-10e-4 h 10e-4 a 15.38605,15.38605 0 0 1 15.38648,15.38623 v 0.5 l -39.53052,10e-4 z"
         fill="#2f2e41"
         id="path23"
         transform="translate(-185.5,-267.58547)" /><path
         d="m 649.80136,546.54 q -0.21423,0 -0.43018,-0.0205 l -16.96655,-1.23535 a 4.49992,4.49992 0 0 1 -3.80932,-6.0293 l 22.70654,-51.01464 a 3.49812,3.49812 0 0 0 -0.19629,-2.79883 3.45084,3.45084 0 0 0 -2.21118,-1.75977 c -10.67725,-2.791 -38.072,-10.22265 -61.78638,-18.918 -10.15991,-3.72558 -16.55884,-9.10937 -19.0188,-16.00195 -3.24316,-9.08691 1.55469,-17.374 1.7605,-17.72168 l 0.16089,-0.27246 22.3147,2.02832 24.19116,2.05762 53.01343,28.42773 a 20.086,20.086 0 0 1 8.8186,25.78418 L 653.90756,543.873 a 4.49689,4.49689 0 0 1 -4.1062,2.667 z"
         fill="#2f2e41"
         id="path24"
         transform="translate(-185.5,-267.58547)" /><circle
         cx="410.70532"
         cy="39.7202"
         fill="#ffb8b8"
         id="circle24"
         r="24.561029" /><polygon
         points="461.164,263.208 443.069,263.209 443.071,295.005 455.331,295.005 "
         fill="#ffb8b8"
         id="polygon24" /><path
         d="m 625.44363,558.58794 24.1438,-10e-4 h 10e-4 a 15.38605,15.38605 0 0 1 15.38648,15.38623 v 0.5 l -39.53052,10e-4 z"
         fill="#2f2e41"
         id="path25"
         transform="translate(-185.5,-267.58547)" /><path
         d="m 642.80136,549.54 q -0.21423,0 -0.43018,-0.0205 l -16.96655,-1.23535 a 4.49992,4.49992 0 0 1 -3.80932,-6.0293 l 22.70654,-51.01464 a 3.49812,3.49812 0 0 0 -0.19629,-2.79883 3.45084,3.45084 0 0 0 -2.21118,-1.75977 c -10.67725,-2.791 -38.072,-10.22265 -61.78638,-18.918 -10.15991,-3.72558 -16.55884,-9.10937 -19.0188,-16.00195 -3.24316,-9.08691 1.55469,-17.374 1.7605,-17.72168 l 0.16089,-0.27246 22.3147,2.02832 24.19116,2.05762 53.01343,28.42773 a 20.086,20.086 0 0 1 8.8186,25.78418 L 646.90756,546.873 a 4.49689,4.49689 0 0 1 -4.1062,2.667 z"
         fill="#2f2e41"
         id="path26"
         transform="translate(-185.5,-267.58547)" /><path
         d="m 412.46339,76.385939 -26,-9 c 0,0 -16.322,12.54 -8.481,43.648561 a 77.01209,77.01209 0 0 1 -3.40009,48.32025 49.7787,49.7787 0 0 1 -2.61889,5.53119 c 0,0 29,35 56,9 l -10.5,-50.5 c 0,0 16.49998,-33.500001 -5.00002,-47.000001 z"
         fill="#ffbf00"
         id="path27"
         style="fill:#aa0000;fill-opacity:1" /><path
         d="m 599.25474,332.702 c -3.49562,-5.23231 -6.25435,-12.48756 -2.40565,-17.46591 3.79907,-4.91416 11.29215,-4.19018 17.11054,-6.36466 8.104,-3.02867 12.80409,-12.5493 11.33824,-21.07564 -1.46585,-8.52634 -8.31031,-15.59442 -16.46405,-18.48645 -8.15374,-2.89203 -17.34839,-1.95148 -25.33312,1.37887 -9.82931,4.0997 -18.26115,12.03028 -21.79686,22.07625 -3.53571,10.04597 -1.6456,22.10808 5.68929,29.82963 7.86381,8.27834 20.20556,10.48454 31.62276,10.35067"
         fill="#2f2e41"
         id="path28"
         transform="translate(-185.5,-267.58547)" /><path
         d="m 576.40785,288.06942 c -4.40484,3.58587 -11.12527,1.99318 -15.8536,-1.15387 -4.72833,-3.14705 -8.56507,-7.62825 -13.681,-10.09566 -9.01922,-4.34995 -19.92379,-1.45825 -28.70171,3.36009 -8.77792,4.81834 -16.55916,11.475 -25.83124,15.25617 -9.27208,3.78117 -21.10393,3.96808 -28.12484,-3.17161 a 25.732,25.732 0 0 0 37.7101,30.37145 c 10.1594,-6.18839 15.77105,-19.1637 27.16592,-22.57933 6.3055,-1.89008 13.07632,-0.36777 19.44917,1.28106 6.37285,1.64883 13.01783,3.43041 19.44912,2.02674 6.43129,-1.40367 12.447,-7.18312 11.6288,-13.71475 z"
         fill="#2f2e41"
         id="path29"
         transform="translate(-185.5,-267.58547)" /><path
         d="m 715.53838,392.87666 a 10.74265,10.74265 0 0 0 -15.86252,-4.44158 l -95.46976,-21.42716 -1.18664,23.33194 94.21678,13.72558 a 10.80091,10.80091 0 0 0 18.30214,-11.18878 z"
         fill="#ffb8b8"
         id="path30"
         transform="translate(-185.5,-267.58547)" /><circle
         cx="519.00977"
         cy="136.82903"
         fill="#ffbf00"
         id="circle31"
         r="7"
         style="fill:#aa0000" /></g></g></svg>
