<?xml version="1.0" encoding="UTF-8" standalone="no"?>
<!-- Created with Inkscape (http://www.inkscape.org/) -->

<svg
   width="210mm"
   height="297mm"
   viewBox="0 0 210 297"
   version="1.1"
   id="svg1"
   xml:space="preserve"
   inkscape:version="1.3.2 (091e20ef0f, 2023-11-25)"
   sodipodi:docname="essevai.svg"
   xmlns:inkscape="http://www.inkscape.org/namespaces/inkscape"
   xmlns:sodipodi="http://sodipodi.sourceforge.net/DTD/sodipodi-0.dtd"
   xmlns="http://www.w3.org/2000/svg"
   xmlns:svg="http://www.w3.org/2000/svg"><sodipodi:namedview
     id="namedview1"
     pagecolor="#ffffff"
     bordercolor="#000000"
     borderopacity="0.25"
     inkscape:showpageshadow="2"
     inkscape:pageopacity="0.0"
     inkscape:pagecheckerboard="0"
     inkscape:deskcolor="#d1d1d1"
     inkscape:document-units="mm"
     showguides="true"
     inkscape:zoom="0.72960859"
     inkscape:cx="397.47339"
     inkscape:cy="561.25984"
     inkscape:window-width="1920"
     inkscape:window-height="1015"
     inkscape:window-x="0"
     inkscape:window-y="0"
     inkscape:window-maximized="1"
     inkscape:current-layer="layer2"><sodipodi:guide
       position="244.01001,146.43774"
       orientation="0,-1"
       id="guide1"
       inkscape:locked="false" /></sodipodi:namedview><defs
     id="defs1" /><g
     inkscape:label="Layer 1"
     inkscape:groupmode="layer"
     id="layer1" /><g
     inkscape:groupmode="layer"
     id="layer2"
     inkscape:label="Layer 2"><g
       id="g1"
       transform="matrix(0.30630935,0,0,0.26458333,3.6969652,66.547925)"><path
         d="m 993.2113,545.61 c -6.16016,6.73 -13.79981,11.74 -22.08985,15.63 h -0.0102 c -0.77979,0.37 -1.56006,0.73 -2.3501,1.07 h -0.01 l -0.0103,0.01 -0.01,-0.01 h -0.01 a 0.00988,0.00988 0 0 1 -0.0102,0.01 h -0.0103 l -0.01,-0.01 c -0.01,0.01 -0.01,0.01 -0.02,0 l -0.01,0.01 -0.0103,-0.01 h -0.01 c -0.0102,0.01 -0.0102,0.01 -0.02,0 h -0.0102 a 139.77437,139.77437 0 0 1 -17.06006,6.1 236.6512,236.6512 0 0 1 -105.10986,5.49 c -0.66993,-0.12 -1.33008,-0.24 -2,-0.36 v -81.11 c 0.66015,-0.28 1.33007,-0.56 2,-0.83 q 6.55516,-2.715 13.27,-4.99 9.65991,-3.3 19.58984,-5.66 a 212.16658,212.16658 0 0 1 66.04,-5.34 q 6.0454,0.45 12.06006,1.3 c 8.39013,1.17005 17.18994,3.21 24.93017,6.75 h 0.01 c 1.13037,0.53 2.24023,1.08 3.34033,1.67005 6.87988,3.73 12.67969,8.86 16.21977,15.89 a 30.57258,30.57258 0 0 1 2.7202,7.99 v 0.02 c 0.1997,0.96 0.3398,1.93 0.4497,2.89 1.2603,11.83995 -3.6498,24.50995 -11.85982,33.48995 z"
         transform="translate(-173.44128,-167.5)"
         fill="#f2f2f2"
         id="path1" /><path
         d="m 1005.0712,512.12 a 1.35827,1.35827 0 0 1 -0.2999,0.04 q -25.69477,1.125 -51.32026,3.34 h -0.0298 c -0.0698,0.01 -0.12989,0.01 -0.19971,0.02 q -26.31006,2.28 -52.51025,5.71 c -0.73975,0.1 -1.47022,0.2 -2.2002,0.29 q -18.11939,2.415 -36.16992,5.36 -7.96509,1.305 -15.8999,2.72 c -0.66993,0.12 -1.33008,0.23 -2,0.36 v -3.03 c 0.66992,-0.13 1.33984,-0.24 2,-0.36 q 26.43016,-4.68 53.04,-8.17 6.69,-0.9 13.39991,-1.7 19.37988,-2.34 38.81982,-4.04 c 0.9502,-0.08 1.89014,-0.16 2.84033,-0.24 q 24.88477,-2.115 49.83988,-3.21 a 0.939,0.939 0 0 1 0.2402,0.02 c 1.6001,0.14 1.94,2.54 0.4498,2.89 z"
         transform="translate(-173.44128,-167.5)"
         fill="#ffffff"
         id="path2" /><path
         d="m 969.49743,559.36319 c -21.33986,0.15682 -42.36351,-8.89183 -57.45793,-23.86936 a 77.82614,77.82614 0 0 1 -11.18417,-14.07 c -1.01743,-1.63171 -3.39758,0.16767 -2.38888,1.78539 11.7227,18.80042 31.24951,32.19306 52.77823,37.11736 a 80.81149,80.81149 0 0 0 18.63625,1.99418 c 1.91362,-0.0141 1.51718,-2.97155 -0.3835,-2.95758 z"
         transform="translate(-173.44128,-167.5)"
         fill="#ffffff"
         id="path3" /><path
         d="m 879.30114,480.95 a 1.6922,1.6922 0 0 1 -1.25,1.13 65.2198,65.2198 0 0 0 -14.07959,5.5 68.40608,68.40608 0 0 0 -17.53027,13.25 c -0.27,0.27 -0.52979,0.54 -0.77979,0.82 -0.42041,0.44 -0.82031,0.89 -1.22021,1.35 v -4.36 c 0.64013,-0.68 1.31005,-1.35 2,-1.99 a 71.91209,71.91209 0 0 1 13.27,-10.04 q 9.65993,-3.3 19.58986,-5.66 z"
         transform="translate(-173.44128,-167.5)"
         fill="#ffffff"
         id="path4" /><path
         d="m 984.1,482.87181 a 69.40228,69.40228 0 0 0 -32.42171,28.58557 1.49955,1.49955 0 0 0 0.79261,1.95385 1.5276,1.5276 0 0 0 1.95385,-0.79261 A 66.04852,66.04852 0 0 1 985.221,485.635 c 1.76525,-0.75416 0.64785,-3.51882 -1.12092,-2.76316 z"
         transform="translate(-173.44128,-167.5)"
         fill="#ffffff"
         id="path5" /><path
         d="m 1025.0214,397.94 c -2.3204,8.82 -6.7701,16.81 -12.2999,24.1 l -0.01,0.01 c -0.5103,0.68 -1.04,1.37 -1.5899,2.03 v 0.01 a 139.27064,139.27064 0 0 1 -12.4101,13.39 233.4288,233.4288 0 0 1 -53.37012,38.13 c -30.66992,16.02 -64.94971,25.49 -98.8999,26.03 -0.25977,0.01 -0.52,0.01 -0.77979,0.01 -0.41016,0.01 -0.82031,0.01 -1.22021,0.01 v -45.45 c 0.6499,-1.24 1.31982,-2.48 2,-3.71 a 219.52414,219.52414 0 0 1 32.03027,-43.82 c 0.2998,-0.33 0.60986,-0.66 0.91992,-0.98 q 7.01953,-7.41 14.71973,-14.11 a 210.81877,210.81877 0 0 1 67.29,-39.85 c 7.97021,-2.86 16.71,-5.15 25.21,-5.6 1.25,-0.07 2.49023,-0.1 3.74023,-0.09 7.83008,0.11 15.33987,1.96 21.74997,6.54 a 30.99854,30.99854 0 0 1 6.1201,5.81 c 0.6197,0.77 1.19,1.56 1.7398,2.37 v 0.01 c 6.6201,9.9 8.1602,23.39 5.0601,35.16 z"
         transform="translate(-173.44128,-167.5)"
         fill="#f2f2f2"
         id="path6" /><path
         d="m 1019.9613,362.77 v 0.01 a 1.46123,1.46123 0 0 1 -0.2397,0.17 q -22.20048,12.915 -43.84038,26.77 c -0.02,0.01 -0.0298,0.02 -0.0498,0.03 a 1.73947,1.73947 0 0 1 -0.18017,0.11 q -22.24512,14.25 -43.85987,29.46 c -0.60009,0.42 -1.21,0.85 -1.81982,1.28 q -14.9253,10.545 -29.54,21.54 -27.60059,20.79 -53.99023,43.12 c -0.66993,0.56 -1.33008,1.13 -2,1.7 v -3.89 c 0.66015,-0.57 1.33007,-1.14 2,-1.7 q 10.11035,-8.535 20.3999,-16.83 c 2.05029,-1.65 4.10986,-3.3 6.16992,-4.93 q 27.45043,-21.855 56.13037,-42.08 h 0.01 q 5.64037,-3.975 11.2998,-7.88 16.08033,-11.07 32.52051,-21.61 c 0.78955,-0.51 1.58984,-1.02 2.38965,-1.53 q 21.0454,-13.44 42.64012,-26 a 1.48864,1.48864 0 0 1 0.2202,-0.11 c 1.4999,-0.6 2.9096,1.38 1.7397,2.37 z"
         transform="translate(-173.44128,-167.5)"
         fill="#ffffff"
         id="path7" /><path
         d="m 1010.4094,421.13341 c -18.82492,10.05171 -41.64595,11.80452 -61.97038,5.55268 a 77.82663,77.82663 0 0 1 -16.44008,-7.26456 c -1.659,-0.97236 -2.93089,1.72674 -1.28615,2.69076 19.11437,11.20348 42.62774,13.99287 63.9802,8.35308 a 80.81169,80.81169 0 0 0 17.42991,-6.891 c 1.6881,-0.90137 -0.037,-3.33625 -1.7135,-2.441 z"
         transform="translate(-173.44128,-167.5)"
         fill="#ffffff"
         id="path8" /><path
         d="m 869.56249,457.72184 a 68.55277,68.55277 0 0 1 -0.95241,-15.86924 72.31889,72.31889 0 0 1 10.7807,-34.15065 q 7.02818,-7.4075 14.72332,-14.11226 a 1.70457,1.70457 0 0 1 -0.58619,1.58483 65.45128,65.45128 0 0 0 -9.91171,11.40756 69.12172,69.12172 0 0 0 -11.08214,50.89232 1.21242,1.21242 0 0 1 -0.31374,1.14283 1.62455,1.62455 0 0 1 -2.65783,-0.89539 z"
         transform="translate(-173.44128,-167.5)"
         fill="#ffffff"
         id="path9" /><path
         d="m 987.809,346.61236 a 69.40222,69.40222 0 0 0 -15.43281,40.37487 1.49954,1.49954 0 0 0 1.60951,1.36207 1.52761,1.52761 0 0 0 1.36207,-1.60951 66.04848,66.04848 0 0 1 14.73742,-38.20118 c 1.21291,-1.48785 -1.06086,-3.41707 -2.27619,-1.92625 z"
         transform="translate(-173.44128,-167.5)"
         fill="#ffffff"
         id="path10" /><path
         d="m 884.25133,379.47 v 0.01 c -0.0698,0.86005 -0.1499,1.71 -0.24023,2.56 v 0.02 a 141.29936,141.29936 0 0 1 -3.25,17.96 c -0.69971,2.9 -1.46,5.78 -2.28955,8.66 -0.1001,0.37 -0.21045,0.74 -0.32031,1.1 v 0.01 a 229.52292,229.52292 0 0 1 -8.73975,24.65 238.91849,238.91849 0 0 1 -22.97021,42.22 c -0.64991,0.97 -1.31983,1.94 -2,2.9 v -156.6 c 0.66992,-0.04 1.33007,-0.04 2,-0.02 q 0.47973,0 0.96,0.03 a 30.32184,30.32184 0 0 1 8.28027,1.61005 c 0.93994,0.31 1.84961,0.66 2.75,1.05 10.90967,4.78 19.48,15.32 23.19971,26.91 2.79,8.67995 3.35005,17.80995 2.62007,26.92995 z"
         transform="translate(-173.44128,-167.5)"
         fill="#f2f2f2"
         id="path11" /><path
         d="m 858.43151,325.63 a 1.07625,1.07625 0 0 1 -0.11035,0.28 q -6.07471,11.80509 -11.87988,23.73 c -0.66993,1.37 -1.33985,2.75 -2,4.12 v -6.8 q 0.99023,-2.04006 2,-4.08 4.48535,-9.09 9.12011,-18.1 a 1.30351,1.30351 0 0 1 0.12012,-0.2 c 0.91992,-1.32 3.19971,-0.42 2.75,1.05 z"
         transform="translate(-173.44128,-167.5)"
         fill="#ffffff"
         id="path12" /><path
         d="m 884.57116,381.08 c -0.17969,0.32 -0.35986,0.63995 -0.56006,0.96 a 79.81637,79.81637 0 0 1 -10.41992,14.24 85.91629,85.91629 0 0 1 -27.1499,19.77 c -0.66016,0.32 -1.33008,0.62 -2,0.9 v -3.25 c 0.66992,-0.3 1.33984,-0.61 2,-0.93 a 80.866,80.866 0 0 0 35.37011,-32.82 1.64488,1.64488 0 0 1 2.43994,-0.47 1.15274,1.15274 0 0 1 0.31983,1.6 z"
         transform="translate(-173.44128,-167.5)"
         fill="#ffffff"
         id="path13" /><path
         d="m 846.44128,200.5 v 76 h -2 v -0.81 h -669 v 0.81 h -2 v -76 a 33.03244,33.03244 0 0 1 33,-33 h 607 a 33.03244,33.03244 0 0 1 33,33 z"
         transform="translate(-173.44128,-167.5)"
         fill="#ffbf00"
         id="path14"
         style="fill:#800000" /><path
         d="m 813.44128,167.5 h -607 a 33.03244,33.03244 0 0 0 -33,33 v 434 a 33.03244,33.03244 0 0 0 33,33 h 607 a 33.03244,33.03244 0 0 0 33,-33 v -434 a 33.03244,33.03244 0 0 0 -33,-33 z m 31,467 a 31.03964,31.03964 0 0 1 -31,31 h -607 a 31.03963,31.03963 0 0 1 -31,-31 v -434 a 31.03963,31.03963 0 0 1 31,-31 h 607 a 31.03964,31.03964 0 0 1 31,31 z"
         transform="translate(-173.44128,-167.5)"
         fill="#3f3d56"
         id="path15" /><circle
         cx="136"
         cy="54.5"
         r="20"
         fill="#ffffff"
         id="circle15" /><circle
         cx="537"
         cy="54.5"
         r="20"
         fill="#ffffff"
         id="circle16" /><path
         d="M 367.22591,445.00191 H 248.24968 a 19.033,19.033 0 0 1 -19.01145,-19.01144 v -56.23263 a 19.033,19.033 0 0 1 19.01145,-19.01144 h 118.97623 a 19.033,19.033 0 0 1 19.01145,19.01144 v 56.23263 a 19.033,19.033 0 0 1 -19.01145,19.01144 z"
         transform="translate(-173.44128,-167.5)"
         fill="#ffbf00"
         id="path16"
         style="fill:#800000" /><path
         d="M 569.62448,445.00191 H 450.64824 A 19.033,19.033 0 0 1 431.6368,425.99047 v -56.23263 a 19.033,19.033 0 0 1 19.01144,-19.01144 h 118.97624 a 19.033,19.033 0 0 1 19.01144,19.01144 v 56.23263 a 19.033,19.033 0 0 1 -19.01144,19.01144 z"
         transform="translate(-173.44128,-167.5)"
         fill="#ffbf00"
         id="path17"
         style="fill:#800000" /><path
         d="M 569.62448,590.29329 H 450.64824 A 19.60963,19.60963 0 0 1 431.06069,570.70574 V 514.47255 A 19.60962,19.60962 0 0 1 450.64824,494.885 h 118.97624 a 19.60962,19.60962 0 0 1 19.58752,19.58755 v 56.23319 a 19.60962,19.60962 0 0 1 -19.58752,19.58755 z"
         transform="translate(-173.44128,-167.5)"
         fill="#f2f2f2"
         id="path18" /><path
         d="M 366.83575,590.29329 H 247.85951 A 19.60963,19.60963 0 0 1 228.272,570.70574 V 514.47255 A 19.60962,19.60962 0 0 1 247.85951,494.885 h 118.97624 a 19.60962,19.60962 0 0 1 19.58755,19.58754 v 56.23319 a 19.60963,19.60963 0 0 1 -19.58755,19.58756 z"
         transform="translate(-173.44128,-167.5)"
         fill="#f2f2f2"
         id="path19" /><path
         d="M 772.023,590.29329 H 653.0468 A 19.60962,19.60962 0 0 1 633.45926,570.70574 V 514.47255 A 19.60962,19.60962 0 0 1 653.0468,494.885 H 772.023 a 19.60962,19.60962 0 0 1 19.58755,19.58754 v 56.23319 A 19.60963,19.60963 0 0 1 772.023,590.29329 Z"
         transform="translate(-173.44128,-167.5)"
         fill="#f2f2f2"
         id="path20" /><path
         d="M 772.023,445.115 H 653.0468 a 19.60962,19.60962 0 0 1 -19.58754,-19.58754 v -56.2332 A 19.60962,19.60962 0 0 1 653.0468,349.70671 H 772.023 a 19.60963,19.60963 0 0 1 19.58755,19.58755 v 56.23319 A 19.60962,19.60962 0 0 1 772.023,445.115 Z"
         transform="translate(-173.44128,-167.5)"
         fill="#f2f2f2"
         id="path21" /><circle
         cx="134.29652"
         cy="230.37416"
         r="32.261841"
         fill="#ffffff"
         id="circle21" /><path
         d="m 304.5399,410.1813 a 3.34586,3.34586 0 0 1 -2.01323,-0.66875 l -0.036,-0.027 -7.58175,-5.80486 a 3.3684,3.3684 0 1 1 4.09732,-5.34756 l 4.91089,3.7656 11.6052,-15.13487 a 3.36827,3.36827 0 0 1 4.72263,-0.62342 l -0.0721,0.098 0.074,-0.0966 a 3.3722,3.3722 0 0 1 0.62341,4.72267 l -13.6505,17.80224 a 3.36974,3.36974 0 0 1 -2.67982,1.3145 z"
         transform="translate(-173.44128,-167.5)"
         fill="#ffbf00"
         id="path22" /><circle
         cx="337.27118"
         cy="229.91084"
         r="32.261841"
         fill="#ffffff"
         id="circle22" /><path
         d="m 507.51457,409.718 a 3.3459,3.3459 0 0 1 -2.01324,-0.66874 l -0.036,-0.027 -7.58176,-5.80486 a 3.3684014,3.3684014 0 1 1 4.09733,-5.34756 l 4.91088,3.7656 11.6052,-15.13488 a 3.3683,3.3683 0 0 1 4.72264,-0.62341 l -0.0721,0.098 0.074,-0.0965 a 3.37217,3.37217 0 0 1 0.62341,4.72266 l -13.65049,17.80224 a 3.36974,3.36974 0 0 1 -2.67982,1.31449 z"
         transform="translate(-173.44128,-167.5)"
         fill="#ffbf00"
         id="path23" /><path
         d="m 728.75351,549.64979 a 10.74269,10.74269 0 0 0 -2.18282,-16.32737 l -18.01117,-96.17273 -21.90458,8.12263 24.59219,91.98054 a 10.80091,10.80091 0 0 0 17.50638,12.39693 z"
         transform="translate(-173.44128,-167.5)"
         fill="#a0616a"
         id="path24" /><path
         d="m 553.96858,402.90038 a 11.40614,11.40614 0 0 1 0.0219,1.79608 l 42.59,32.77955 12.0777,-4.95957 9.86722,17.24911 -20.528,10.85781 a 8.66955,8.66955 0 0 1 -10.27652,-1.62745 l -42.571,-43.8892 a 11.37563,11.37563 0 1 1 8.81868,-12.20633 z"
         transform="translate(-173.44128,-167.5)"
         fill="#a0616a"
         id="path25" /><polygon
         points="480.028,552.849 467.769,552.849 461.936,515.561 480.031,515.562 "
         fill="#a0616a"
         id="polygon25" /><path
         d="m 656.59617,732.23337 -39.53051,-0.001 v -0.5 a 15.38605,15.38605 0 0 1 15.38647,-15.38623 h 10e-4 l 24.1438,10e-4 z"
         transform="translate(-173.44128,-167.5)"
         fill="#2f2e41"
         id="path26" /><polygon
         points="526.028,552.849 513.769,552.849 507.936,515.561 526.031,515.562 "
         fill="#a0616a"
         id="polygon26" /><path
         d="m 702.59617,732.23337 -39.53051,-0.001 v -0.5 a 15.38605,15.38605 0 0 1 15.38647,-15.38623 h 10e-4 l 24.1438,10e-4 z"
         transform="translate(-173.44128,-167.5)"
         fill="#2f2e41"
         id="path27" /><path
         d="m 638.6643,712.9793 a 4.49017,4.49017 0 0 1 -4.47485,-4.07226 l -10.68359,-143.68946 0.50488,-0.041 73.521,-6.043 0.0198,0.52246 5.84448,148.8506 a 4.49964,4.49964 0 0 1 -4.49707,4.668 h -14.41554 a 4.475,4.475 0 0 1 -4.44751,-3.81543 L 660.45971,589.11407 a 0.5,0.5 0 0 0 -0.99414,0.0723 L 658.57763,707.91 a 4.50454,4.50454 0 0 1 -4.26318,4.46192 l -15.40869,0.60058 c -0.0808,0.005 -0.16162,0.007 -0.24146,0.007 z"
         transform="translate(-173.44128,-167.5)"
         fill="#2f2e41"
         id="path28" /><circle
         cx="477.77191"
         cy="191.56438"
         r="24.561029"
         fill="#a0616a"
         id="circle28" /><path
         d="m 655.96792,574.38164 a 121.03726,121.03726 0 0 1 -31.76839,-4.34179 4.51046,4.51046 0 0 1 -3.2358,-4.68653 c 3.30645,-49.69336 4.08385,-88.25683 -2.86906,-114.939 -2.96342,-11.37207 -1.618,-23.34912 3.69108,-32.85986 7.98992,-14.313 22.67547,-23.02442 38.34016,-22.72364 v 0 q 1.12287,0.0212 2.26805,0.0801 c 23.7729,1.22412 42.29735,22.73047 41.29428,47.9419 l -4.78177,120.16845 a 4.43993,4.43993 0 0 1 -2.81538,4.04395 114.24513,114.24513 0 0 1 -40.12317,7.31644 z"
         transform="translate(-173.44128,-167.5)"
         fill="#3f3d56"
         id="path29" /><path
         d="m 622.13643,459.64084 -18.39762,-22.54449 a 5.76149,5.76149 0 0 1 1.51427,-8.59185 l 24.92148,-14.85005 a 16.00071,16.00071 0 0 1 20.16015,24.85261 l -19.47729,21.37306 a 5.7615,5.7615 0 0 1 -8.721,-0.23928 z"
         transform="translate(-173.44128,-167.5)"
         fill="#3f3d56"
         id="path30" /><path
         d="m 680.01136,456.81194 a 5.7553,5.7553 0 0 1 -3.16409,-3.60611 l -8.282,-27.70526 A 16.00071,16.00071 0 0 1 697.50865,411.849 l 16.01635,24.18843 a 5.7615,5.7615 0 0 1 -2.36144,8.3986 l -26.35426,12.3361 a 5.755,5.755 0 0 1 -4.79794,0.0398 z"
         transform="translate(-173.44128,-167.5)"
         fill="#3f3d56"
         id="path31" /><path
         d="m 663.35014,379.21724 -18.206,-4.16705 c -1.87794,-0.42983 -4.13413,-1.24991 -4.39457,-3.15873 -0.35,-2.56513 3.34149,-4.35213 3.001,-6.91854 -0.32983,-2.48578 -3.69254,-2.80615 -6.09035,-3.53991 a 9.11065,9.11065 0 0 1 -5.67236,-11.34023 c -2.59437,3.656 -8.52155,3.96913 -11.88655,1.00712 -3.365,-2.96201 -4.01043,-8.33613 -1.98963,-12.33777 a 14.28744,14.28744 0 0 1 10.724,-7.2405 22.61663,22.61663 0 0 1 13.02306,2.42787 c 0.26664,-2.83339 3.80421,-3.98207 6.65,-4.00735 a 28.43074,28.43074 0 0 1 26.64315,19.4463 c 3.492,11.25212 1.15619,23.58635 -8.6142,30.16993 z"
         transform="translate(-173.44128,-167.5)"
         fill="#2f2e41"
         id="path32" /><path
         d="m 846.72868,732.5 h -381 a 1,1 0 1 1 0,-2 h 381 a 1,1 0 1 1 0,2 z"
         transform="translate(-173.44128,-167.5)"
         fill="#3f3d56"
         id="path33" /></g></g></svg>
