<?xml version="1.0" encoding="UTF-8" standalone="no"?>
<!-- Created with Inkscape (http://www.inkscape.org/) -->

<svg
   width="210mm"
   height="297mm"
   viewBox="0 0 210 297"
   version="1.1"
   id="svg1"
   xml:space="preserve"
   sodipodi:docname="drawing.svg"
   inkscape:version="1.3.2 (091e20ef0f, 2023-11-25)"
   xmlns:inkscape="http://www.inkscape.org/namespaces/inkscape"
   xmlns:sodipodi="http://sodipodi.sourceforge.net/DTD/sodipodi-0.dtd"
   xmlns="http://www.w3.org/2000/svg"
   xmlns:svg="http://www.w3.org/2000/svg"><sodipodi:namedview
     id="namedview1"
     pagecolor="#ffffff"
     bordercolor="#000000"
     borderopacity="0.25"
     inkscape:showpageshadow="2"
     inkscape:pageopacity="0.0"
     inkscape:pagecheckerboard="0"
     inkscape:deskcolor="#d1d1d1"
     inkscape:document-units="mm"
     inkscape:zoom="1.5540715"
     inkscape:cx="418.89964"
     inkscape:cy="585.2369"
     inkscape:window-width="1920"
     inkscape:window-height="1015"
     inkscape:window-x="0"
     inkscape:window-y="0"
     inkscape:window-maximized="1"
     inkscape:current-layer="layer1" /><defs
     id="defs1" /><g
     inkscape:label="Layer 1"
     inkscape:groupmode="layer"
     id="layer1"><g
       id="g1"
       transform="matrix(0.26458333,0,0,0.26458333,5.4665658,100.23616)"
       style="fill:none"><path
         d="m 432.12988,567.97449 c -2.85009,22.33 -13.33008,42.76 -24.51025,62.44 -0.36963,0.67 -0.75,1.33 -1.13965,2 H 290.27979 c -2.3501,-0.61 -4.66993,-1.28 -6.98,-2 a 127.02725,127.02725 0 0 1 -36.68994,-18.05 c -42.75,-30.8 -59.20019,-89 -51.77,-141.15 4.62012,-32.4 18.83985,-65.48 46.52979,-82.93 14.62012,-9.23 33.3999,-12.23 50.23,-8.8 0.44043,0.08 0.88037,0.18 1.33008,0.27 14.48,3.26 27.37988,11.36 34.72021,24.41 13.19971,23.45 5.33985,52.5 -1.1499,78.6 -6.47021,26.1 -9.98047,57.34 8.7998,76.59 -6.20019,-18.25 -0.0801,-40.02 14.73,-52.36 11.18994,-9.31 26.77,-12.8 40.98,-9.91 1.35986,0.29 2.70019,0.62 4.02,1.02 a 44.59846,44.59846 0 0 1 9.16992,3.84 c 22.14986,12.37003 31.12007,40.86002 27.93013,66.03 z"
         fill="#f2f2f2"
         id="path1"
         transform="translate(-185.5,-267.58547)"
         style="fill:none" /><path
         d="m 363.23,630.4145 c 3.21973,0.75 6.44971,1.41 9.69971,2 h -17.56985 c -2.30029,-0.62 -4.59033,-1.28 -6.85986,-2 q -7.48534,-2.34 -14.74023,-5.37 c -19.39991,-8.14 -37.27,-20.36 -50.79,-36.62 a 103.37091,103.37091 0 0 1 -16.02,-26.17 118.85639,118.85639 0 0 1 -8.19971,-33.49 c -2.4502,-23.6 0.0498,-47.85 4.71973,-71.03 a 296.45051,296.45051 0 0 1 23.16015,-69.47 q 1.905,-3.97494 3.93994,-7.9 a 1.54158,1.54158 0 0 1 1.02979,-0.88 1.77741,1.77741 0 0 1 1.33008,0.27 2.1062,2.1062 0 0 1 0.83008,2.78 293.03874,293.03874 0 0 0 -24.58008,66.96 c -5.31983,22.67 -8.33985,46.39 -7.31006,69.7 0.98,21.78 6.67041,43.2 19.58008,61.00994 11.79,16.26 28.06982,29.08 46.08008,37.81 A 169.131,169.131 0 0 0 363.23,630.4145 Z"
         fill="#ffffff"
         id="path2"
         transform="translate(-185.5,-267.58547)"
         style="fill:none" /><path
         d="m 401.79,632.4145 h -5.18018 c -0.58007,-0.66 -1.14013,-1.33 -1.68994,-2 a 110.41123,110.41123 0 0 1 -23.24023,-49.66 107.73445,107.73445 0 0 1 9.29,-67.05 110.2407,110.2407 0 0 1 10.04,-16.62 c 1.35986,0.29 2.70019,0.62 4.02,1.02 a 106.05621,106.05621 0 0 0 -19.77,45.34 105.09492,105.09492 0 0 0 24.74035,86.97 c 0.57959,0.66998 1.17969,1.34002 1.79,2 z"
         fill="#ffffff"
         id="path3"
         transform="translate(-185.5,-267.58547)"
         style="fill:none" /><path
         d="m 868.42938,615.40764 c 0.75219,5.8933 3.51805,11.28515 6.4687,16.47906 0.0975,0.17682 0.19794,0.351 0.30078,0.52783 h 30.66735 c 0.62024,-0.161 1.23248,-0.33782 1.84215,-0.52783 a 33.52491,33.52491 0 0 0 9.68315,-4.76373 c 11.2825,-8.12868 15.624,-23.48872 13.663,-37.25207 -1.21933,-8.55094 -4.97218,-17.28137 -12.28006,-21.88674 a 18.43729,18.43729 0 0 0 -13.25661,-2.32248 c -0.11624,0.0211 -0.23235,0.0475 -0.351,0.0713 a 13.67963,13.67963 0 0 0 -9.1633,6.44224 c -3.48365,6.18889 -1.40929,13.85571 0.30348,20.744 1.70761,6.88828 2.634,15.13308 -2.32243,20.21351 a 12.64393,12.64393 0 0 0 -14.70288,-16.4342 c -0.35889,0.0765 -0.71263,0.16363 -1.061,0.26921 a 11.77068,11.77068 0 0 0 -2.42011,1.01345 c -5.8457,3.26464 -8.21311,10.78367 -7.37122,17.42649 z"
         fill="#f2f2f2"
         id="path4"
         transform="translate(-185.5,-267.58547)"
         style="fill:none" /><path
         d="m 886.61332,631.8867 c -0.84974,0.19794 -1.70219,0.37211 -2.55993,0.52783 h 4.637 c 0.60709,-0.16362 1.21147,-0.33782 1.81044,-0.52783 q 1.97553,-0.61758 3.89022,-1.41724 a 34.90012,34.90012 0 0 0 13.40442,-9.66469 27.28163,27.28163 0 0 0 4.228,-6.90674 31.36842,31.36842 0 0 0 2.164,-8.83864 62.85793,62.85793 0 0 0 -1.24562,-18.7461 78.23849,78.23849 0 0 0 -6.11239,-18.33442 q -0.50277,-1.04906 -1.03982,-2.08494 a 0.40684,0.40684 0 0 0 -0.27178,-0.23225 0.46908,0.46908 0 0 0 -0.351,0.0713 0.55587,0.55587 0 0 0 -0.21908,0.73369 77.33813,77.33813 0 0 1 6.48714,17.672 68.02194,68.02194 0 0 1 1.92926,18.39511 29.3506,29.3506 0 0 1 -5.16755,16.10164 32.4858,32.4858 0 0 1 -12.16137,9.97875 44.6366,44.6366 0 0 1 -9.42194,3.27257 z"
         fill="#ffffff"
         id="path5"
         transform="translate(-185.5,-267.58547)"
         style="fill:none" /><path
         d="m 876.43662,632.41453 h 1.36714 c 0.15309,-0.17418 0.3009,-0.351 0.446,-0.52783 a 29.13962,29.13962 0 0 0 6.13352,-13.10618 28.43312,28.43312 0 0 0 -2.45181,-17.69573 29.095,29.095 0 0 0 -2.64975,-4.38633 c -0.35889,0.0765 -0.71263,0.16363 -1.061,0.26921 a 27.99,27.99 0 0 1 5.21767,11.96606 27.73652,27.73652 0 0 1 -6.5294,22.953 c -0.15291,0.17679 -0.31129,0.35362 -0.47237,0.5278 z"
         fill="#ffffff"
         id="path6"
         transform="translate(-185.5,-267.58547)"
         style="fill:none" /><path
         d="m 592.00977,480.0937 h -95.981 l -1.01754,-29.5107 a 8.85956,8.85956 0 0 1 9.93091,-9.09863 l 55.85449,6.83936 h 0.007 a 31.29061,31.29061 0 0 1 31.2063,31.27 z"
         fill="#ffbf00"
         id="path7"
         transform="translate(-185.5,-267.58547)"
         style="fill:none" /><path
         d="m 549.23082,375.4145 h -66.94211 a 6.77712,6.77712 0 0 0 -6.77894,6.77894 v 66.94211 a 6.77713,6.77713 0 0 0 6.77894,6.77895 h 66.94211 a 6.77714,6.77714 0 0 0 6.779,-6.77895 v -66.94211 a 6.77713,6.77713 0 0 0 -6.779,-6.77894 z"
         fill="#cccccc"
         id="path8"
         transform="translate(-185.5,-267.58547)"
         style="fill:none" /><path
         d="m 534.15445,425.47126 -31.60628,6.15492 a 7.2107,7.2107 0 0 1 -8.44659,-5.69307 L 491.672,413.45694 a 7.21069,7.21069 0 0 1 5.69307,-8.44658 l 31.60628,-6.15491 a 7.21069,7.21069 0 0 1 8.44659,5.69307 l 2.42957,12.47616 a 7.21068,7.21068 0 0 1 -5.69306,8.44658 z"
         fill="#3f3d56"
         id="path9"
         transform="translate(-185.5,-267.58547)"
         style="fill:none" /><path
         d="m 527.831,410.73188 -24.12058,4.69717 a 1.6947485,1.6947485 0 0 1 -0.64789,-3.327 l 24.12059,-4.69717 a 1.6947476,1.6947476 0 0 1 0.64788,3.327 z"
         fill="#ffffff"
         id="path10"
         transform="translate(-185.5,-267.58547)"
         style="fill:none" /><path
         d="m 523.14259,417.68789 -12.47616,2.42957 a 1.6947485,1.6947485 0 0 1 -0.64789,-3.327 l 12.47617,-2.42957 a 1.6947476,1.6947476 0 1 1 0.64788,3.327 z"
         fill="#ffffff"
         id="path11"
         transform="translate(-185.5,-267.58547)"
         style="fill:none" /><path
         d="m 556.00977,382.19344 v 8.89737 h -80.5 v -8.89737 a 6.77712,6.77712 0 0 1 6.77894,-6.77894 h 66.94211 a 6.77713,6.77713 0 0 1 6.77895,6.77894 z"
         fill="#b3b3b3"
         id="path12"
         transform="translate(-185.5,-267.58547)"
         style="fill:none" /><path
         d="m 716.76052,393.87705 a 10.74267,10.74267 0 0 0 -15.19331,-6.3648 l -92.09655,-33.04273 -4.05633,23.00726 91.8034,25.2454 a 10.80091,10.80091 0 0 0 19.54279,-8.84513 z"
         fill="#ffb8b8"
         id="path13"
         transform="translate(-185.5,-267.58547)"
         style="fill:none" /><path
         d="m 716.76052,393.87705 a 10.74267,10.74267 0 0 0 -15.19331,-6.3648 l -92.09655,-33.04273 -4.05633,23.00726 91.8034,25.2454 a 10.80091,10.80091 0 0 0 19.54279,-8.84513 z"
         opacity="0.2"
         id="path14"
         transform="translate(-185.5,-267.58547)"
         style="fill:none" /><path
         d="m 625.81732,358.66188 -8.69674,22.72023 a 4.81688,4.81688 0 0 1 -6.86086,2.47581 l -21.13624,-11.89627 a 13.37737,13.37737 0 0 1 9.63746,-24.95856 l 23.6022,5.23464 a 4.81686,4.81686 0 0 1 3.45418,6.42415 z"
         fill="#ffbf00"
         id="path15"
         transform="translate(-185.5,-267.58547)"
         style="fill:none;fill-opacity:1" /><path
         d="m 724.00977,414.9145 -33,15 4.33259,16.311 a 253.73547,253.73547 0 0 1 6.53976,96.64985 v 0 l 24.12766,5.03915 20,-51 -7,-58 z"
         fill="#ffbf00"
         id="path16"
         transform="translate(-185.5,-267.58547)"
         style="fill:none" /><path
         d="m 788.75977,490.4145 c -21.68213,0 -39.35157,15.762 -40.209,35.5 h 80.418 c -0.85744,-19.73804 -18.52688,-35.5 -40.209,-35.5 z"
         fill="#3f3d56"
         id="path17"
         transform="translate(-185.5,-267.58547)"
         style="fill:none" /><path
         d="m 771.88135,493.81605 c -1.12842,-89.09839 -51.87158,-80.90155 -51.87158,-80.90155 0,0 0.94921,27.73333 1.40527,28.59582 32.33545,61.17957 -21.03027,132.90381 -88.96,119.70886 q -1.92114,-0.37317 -3.69141,-0.75714 A 34.5813,34.5813 0 0 1 601.60035,521.6992 c 6.69158,-53.73562 -26.59062,-52.7847 -26.59062,-52.7847 h -48.66647 l -25.27335,-22.7459 a 7.3469,7.3469 0 0 0 -11.80868,2.92095 l -3.25146,8.825 c 0,0 -48,5 -44,52 h 14.83984 a 29.96684,29.96684 0 0 0 0.16016,4 l 110.75092,-0.90044 c 6.49187,-0.0528 12.22225,5.20768 12.249,11.69971 a 11.75308,11.75308 0 0 1 -12.14443,11.79594 l -17.85546,-0.59521 c -5.5,24.5 8,41 22.875,51.375 a 83.1484,83.1484 0 0 0 47.61766,14.625 h 48.50734 c 63,0 74,-53 74,-53 32.99997,-14.00005 28.87155,-55.0985 28.87155,-55.0985 z"
         fill="#3f3d56"
         id="path18"
         transform="translate(-185.5,-267.58547)"
         style="fill:none" /><circle
         cx="600.25977"
         cy="307.07904"
         fill="#3f3d56"
         id="circle18"
         r="56.25"
         style="fill:none" /><circle
         cx="600.25977"
         cy="307.07904"
         fill="#ffffff"
         id="circle19"
         r="13.78676"
         style="fill:none" /><circle
         cx="316.25977"
         cy="298.57904"
         fill="#3f3d56"
         id="circle20"
         r="64.75"
         style="fill:none" /><circle
         cx="316.25977"
         cy="298.57904"
         fill="#ffffff"
         id="circle21"
         r="15.8701"
         style="fill:none" /><path
         d="M 691.10352,434.34663 679.23,402.09711 a 13.63843,13.63843 0 0 1 8.08691,-17.51074 l 34.04,-12.53125 a 23.99761,23.99761 0 0 1 30.812,14.22705 23.84491,23.84491 0 0 1 1.481,8.29248 24.1887,24.1887 0 0 1 -8.98779,18.73 23.81344,23.81344 0 0 1 -6.72022,3.78907 z"
         fill="#3f3d56"
         id="path21"
         transform="translate(-185.5,-267.58547)"
         style="fill:none" /><path
         d="m 753.1499,394.57447 a 23.54938,23.54938 0 0 1 -8.80029,18.34 29.98827,29.98827 0 0 1 -19.69971,-41.3 23.50519,23.50519 0 0 1 28.5,22.96 z"
         fill="#ffbf00"
         id="path22"
         transform="translate(-185.5,-267.58547)"
         style="fill:none;fill-opacity:1" /><ellipse
         cx="265.00977"
         cy="231.82903"
         rx="14"
         ry="17"
         fill="#ffbf00"
         id="ellipse22"
         style="fill:none" /><polygon
         points="468.164,260.208 450.069,260.209 450.071,292.005 462.331,292.005 "
         fill="#ffb8b8"
         id="polygon22"
         style="fill:none" /><path
         d="m 632.44363,555.58794 24.1438,-10e-4 h 10e-4 a 15.38605,15.38605 0 0 1 15.38648,15.38623 v 0.5 l -39.53052,10e-4 z"
         fill="#2f2e41"
         id="path23"
         transform="translate(-185.5,-267.58547)"
         style="fill:none" /><path
         d="m 649.80136,546.54 q -0.21423,0 -0.43018,-0.0205 l -16.96655,-1.23535 a 4.49992,4.49992 0 0 1 -3.80932,-6.0293 l 22.70654,-51.01464 a 3.49812,3.49812 0 0 0 -0.19629,-2.79883 3.45084,3.45084 0 0 0 -2.21118,-1.75977 c -10.67725,-2.791 -38.072,-10.22265 -61.78638,-18.918 -10.15991,-3.72558 -16.55884,-9.10937 -19.0188,-16.00195 -3.24316,-9.08691 1.55469,-17.374 1.7605,-17.72168 l 0.16089,-0.27246 22.3147,2.02832 24.19116,2.05762 53.01343,28.42773 a 20.086,20.086 0 0 1 8.8186,25.78418 L 653.90756,543.873 a 4.49689,4.49689 0 0 1 -4.1062,2.667 z"
         fill="#2f2e41"
         id="path24"
         transform="translate(-185.5,-267.58547)"
         style="fill:none" /><circle
         cx="410.70532"
         cy="39.7202"
         fill="#ffb8b8"
         id="circle24"
         r="24.561029"
         style="fill:none" /><polygon
         points="461.164,263.208 443.069,263.209 443.071,295.005 455.331,295.005 "
         fill="#ffb8b8"
         id="polygon24"
         style="fill:none" /><path
         d="m 625.44363,558.58794 24.1438,-10e-4 h 10e-4 a 15.38605,15.38605 0 0 1 15.38648,15.38623 v 0.5 l -39.53052,10e-4 z"
         fill="#2f2e41"
         id="path25"
         transform="translate(-185.5,-267.58547)"
         style="fill:none" /><path
         d="m 642.80136,549.54 q -0.21423,0 -0.43018,-0.0205 l -16.96655,-1.23535 a 4.49992,4.49992 0 0 1 -3.80932,-6.0293 l 22.70654,-51.01464 a 3.49812,3.49812 0 0 0 -0.19629,-2.79883 3.45084,3.45084 0 0 0 -2.21118,-1.75977 c -10.67725,-2.791 -38.072,-10.22265 -61.78638,-18.918 -10.15991,-3.72558 -16.55884,-9.10937 -19.0188,-16.00195 -3.24316,-9.08691 1.55469,-17.374 1.7605,-17.72168 l 0.16089,-0.27246 22.3147,2.02832 24.19116,2.05762 53.01343,28.42773 a 20.086,20.086 0 0 1 8.8186,25.78418 L 646.90756,546.873 a 4.49689,4.49689 0 0 1 -4.1062,2.667 z"
         fill="#2f2e41"
         id="path26"
         transform="translate(-185.5,-267.58547)"
         style="fill:none" /><path
         d="m 412.46339,76.385939 -26,-9 c 0,0 -16.322,12.54 -8.481,43.648561 a 77.01209,77.01209 0 0 1 -3.40009,48.32025 49.7787,49.7787 0 0 1 -2.61889,5.53119 c 0,0 29,35 56,9 l -10.5,-50.5 c 0,0 16.49998,-33.500001 -5.00002,-47.000001 z"
         fill="#ffbf00"
         id="path27"
         style="fill:none;fill-opacity:1" /><path
         d="m 599.25474,332.702 c -3.49562,-5.23231 -6.25435,-12.48756 -2.40565,-17.46591 3.79907,-4.91416 11.29215,-4.19018 17.11054,-6.36466 8.104,-3.02867 12.80409,-12.5493 11.33824,-21.07564 -1.46585,-8.52634 -8.31031,-15.59442 -16.46405,-18.48645 -8.15374,-2.89203 -17.34839,-1.95148 -25.33312,1.37887 -9.82931,4.0997 -18.26115,12.03028 -21.79686,22.07625 -3.53571,10.04597 -1.6456,22.10808 5.68929,29.82963 7.86381,8.27834 20.20556,10.48454 31.62276,10.35067"
         fill="#2f2e41"
         id="path28"
         transform="translate(-185.5,-267.58547)"
         style="fill:none" /><path
         d="m 576.40785,288.06942 c -4.40484,3.58587 -11.12527,1.99318 -15.8536,-1.15387 -4.72833,-3.14705 -8.56507,-7.62825 -13.681,-10.09566 -9.01922,-4.34995 -19.92379,-1.45825 -28.70171,3.36009 -8.77792,4.81834 -16.55916,11.475 -25.83124,15.25617 -9.27208,3.78117 -21.10393,3.96808 -28.12484,-3.17161 a 25.732,25.732 0 0 0 37.7101,30.37145 c 10.1594,-6.18839 15.77105,-19.1637 27.16592,-22.57933 6.3055,-1.89008 13.07632,-0.36777 19.44917,1.28106 6.37285,1.64883 13.01783,3.43041 19.44912,2.02674 6.43129,-1.40367 12.447,-7.18312 11.6288,-13.71475 z"
         fill="#2f2e41"
         id="path29"
         transform="translate(-185.5,-267.58547)"
         style="fill:none" /><path
         d="m 715.53838,392.87666 a 10.74265,10.74265 0 0 0 -15.86252,-4.44158 l -95.46976,-21.42716 -1.18664,23.33194 94.21678,13.72558 a 10.80091,10.80091 0 0 0 18.30214,-11.18878 z"
         fill="#ffb8b8"
         id="path30"
         transform="translate(-185.5,-267.58547)"
         style="fill:none" /><circle
         cx="519.00977"
         cy="136.82903"
         fill="#ffbf00"
         id="circle31"
         r="7"
         style="fill:none" /></g><g
       id="g32"
       transform="matrix(0.26687772,0,0,0.26458333,-13.169919,77.085558)"><path
         d="m 275.41211,460.30048 h -28.41882 a 3.76777,3.76777 0 0 0 -3.76777,3.76776 v 12.47387 a 3.76777,3.76777 0 0 0 3.76777,3.76777 h 4.70941 V 499 h 19 v -18.69012 h 4.70941 a 3.76777,3.76777 0 0 0 3.76776,-3.76777 v -12.47387 a 3.76777,3.76777 0 0 0 -3.76776,-3.76776 z"
         transform="translate(-156,-207.2555)"
         fill="#ffbf00"
         id="path1-4"
         style="fill:#800000" /><path
         d="m 303.87661,574.46128 a 146.10549,146.10549 0 0 1 -25.418,-86.62437 3.08142,3.08142 0 0 0 -2.40522,-3.075 V 479.372 h -30.01406 v 5.315 h -0.41356 a 3.07971,3.07971 0 0 0 -3.06724,3.30786 q 3.54683,49.44186 -23.95358,88.677 a 8.4873,8.4873 0 0 0 -1.53606,5.14352 l 3.28188,101.51817 a 8.78815,8.78815 0 0 0 8.713,8.48191 h 67.88732 a 8.79123,8.79123 0 0 0 8.71824,-8.63152 l 1.26471,-98.56588 a 17.78875,17.78875 0 0 0 -3.05743,-10.15678 z"
         transform="translate(-156,-207.2555)"
         fill="#3f3d56"
         id="path2-5" /><path
         d="m 269.48783,464.36493 a 8.128815,8.128815 0 0 1 -16.25763,0"
         transform="translate(-156,-207.2555)"
         opacity="0.2"
         id="path3-0" /><path
         d="m 293.12991,608.18244 h -8.22064 a 21.57614,21.57614 0 0 0 -42.6488,0 h -8.22118 a 6.06671,6.06671 0 0 0 -5.99616,6.98918 l 8.92944,58.04135 h 51.27407 l 10.84608,-57.84582 a 6.0667,6.0667 0 0 0 -5.96281,-7.18471 z"
         transform="translate(-156,-207.2555)"
         fill="#ffbf00"
         id="path4-3"
         style="fill:#800000" /><polygon
         points="737.552,369.675 736,307.634 827.952,307.634 825.98,386.448 823.538,484.181 740.414,484.181 "
         fill="#e6e6e6"
         id="polygon4" /><rect
         x="775.72314"
         y="265.70392"
         width="11.76981"
         height="155.95003"
         fill="#ffbf00"
         id="rect4"
         style="fill:#800000" /><path
         d="m 978.06676,574.27527 -2.22611,112.02 h -75.76674 l -2.60826,-131.24365 a 51.63393,51.63393 0 0 1 40.82688,5.61536 c 12.65908,7.48707 26.88047,11.51726 39.77423,13.60829 z"
         transform="translate(-156,-207.2555)"
         fill="#3f3d56"
         id="path5-6" /><rect
         x="752.03076"
         y="379.63031"
         width="10.79992"
         height="10.79992"
         fill="#e6e6e6"
         id="rect5" /><rect
         x="759.3869"
         y="357.56192"
         width="10.79992"
         height="10.79992"
         fill="#e6e6e6"
         id="rect6" /><rect
         x="936.42383"
         y="575.81561"
         width="10.79992"
         height="10.79992"
         transform="rotate(36.56259,1177.5087,241.47909)"
         fill="#e6e6e6"
         id="rect7" /><rect
         x="955.93677"
         y="594.95129"
         width="10.79992"
         height="10.79992"
         transform="rotate(36.56259,1197.0216,260.61478)"
         fill="#e6e6e6"
         id="rect8" /><rect
         x="922.83417"
         y="605.98553"
         width="10.79992"
         height="10.79992"
         transform="rotate(36.56259,1163.919,271.64898)"
         fill="#e6e6e6"
         id="rect9" /><circle
         cx="805.14764"
         cy="351.0351"
         r="2.20684"
         fill="#3f3d56"
         id="circle9" /><circle
         cx="760.27527"
         cy="336.32281"
         r="2.20684"
         fill="#3f3d56"
         id="circle10" /><circle
         cx="797.7915"
         cy="320.87494"
         r="2.20684"
         fill="#3f3d56"
         id="circle11" /><circle
         cx="444.50809"
         cy="241.75401"
         r="241.75401"
         fill="#ffbf00"
         id="circle12"
         style="fill:#800000" /><path
         d="m 600.50808,625.46663 a 176.45595,176.45595 0 1 1 124.77436,-51.68275 175.30352,175.30352 0 0 1 -124.77436,51.68275 z m 0,-342.0314 c -91.29808,0 -165.5743,74.27621 -165.5743,165.57429 0,91.2977 74.27622,165.5743 165.5743,165.5743 91.2977,0 165.57429,-74.2766 165.57429,-165.5743 0,-91.29808 -74.27659,-165.57429 -165.57429,-165.57429 z"
         transform="translate(-156,-207.2555)"
         opacity="0.2"
         id="path12-1" /><circle
         cx="444.50809"
         cy="241.75401"
         r="171.0157"
         fill="#3f3d56"
         id="circle13" /><path
         d="m 473.32742,380.62742 a 21.704,21.704 0 1 1 38.68118,-19.69819 l 48.31632,94.87836 a 21.704,21.704 0 1 1 -38.68118,19.69819 z"
         transform="translate(-156,-207.2555)"
         fill="#ff6584"
         id="path13-0" /><path
         d="m 478.71655,391.21 -2.23,-4.379 c 11.12916,-8.64736 24.19788,-15.007 38.68118,-19.69819 l 2.23,4.379 c -15.67541,3.26426 -29.01157,9.30519 -38.68118,19.69819 z"
         transform="translate(-156,-207.2555)"
         opacity="0.2"
         id="path14-6" /><path
         d="m 489.12314,411.64534 -2.23,-4.379 c 11.12915,-8.64736 24.19788,-15.007 38.68117,-19.69819 l 2.23,4.379 c -15.6754,3.26426 -29.01156,9.30521 -38.68117,19.69819 z"
         transform="translate(-156,-207.2555)"
         opacity="0.2"
         id="path15-3" /><path
         d="m 499.52973,432.08068 -2.23,-4.379 c 11.12915,-8.64736 24.19788,-15.007 38.68118,-19.69819 l 2.23,4.379 c -15.67541,3.26426 -29.01156,9.30521 -38.68118,19.69819 z"
         transform="translate(-156,-207.2555)"
         opacity="0.2"
         id="path16-2" /><path
         d="m 509.93632,452.516 -2.23,-4.379 c 11.12916,-8.64736 24.19788,-15.007 38.68118,-19.69819 l 2.23,4.379 c -15.67541,3.26428 -29.01156,9.30519 -38.68118,19.69819 z"
         transform="translate(-156,-207.2555)"
         opacity="0.2"
         id="path17-0" /><path
         d="m 520.34292,472.95136 -2.23,-4.379 c 11.12916,-8.64736 24.19788,-15.007 38.68118,-19.69819 l 2.23,4.379 c -15.67542,3.26426 -29.01157,9.30521 -38.68118,19.69819 z"
         transform="translate(-156,-207.2555)"
         opacity="0.2"
         id="path18-6" /><path
         d="m 437.07906,416.14643 a 21.704,21.704 0 1 1 38.68118,-19.6982 l 48.31632,94.87837 a 21.704,21.704 0 0 1 -38.68118,19.69819 z"
         transform="translate(-156,-207.2555)"
         fill="#ff6584"
         id="path19" /><path
         d="m 442.46819,426.729 -2.23,-4.379 c 11.12916,-8.64736 24.19788,-15.007 38.68118,-19.69819 l 2.23,4.379 C 465.474,410.29508 452.1378,416.336 442.46819,426.729 Z"
         transform="translate(-156,-207.2555)"
         opacity="0.2"
         id="path20" /><path
         d="m 452.87478,447.16435 -2.23,-4.379 c 11.12915,-8.64736 24.19788,-15.007 38.68118,-19.69819 l 2.23,4.379 c -15.67541,3.26426 -29.01156,9.30521 -38.68118,19.69819 z"
         transform="translate(-156,-207.2555)"
         opacity="0.2"
         id="path21-1" /><path
         d="m 463.28137,467.59969 -2.23,-4.379 c 11.12915,-8.64736 24.19788,-15.007 38.68118,-19.69819 l 2.23,4.379 c -15.67541,3.26426 -29.01155,9.30521 -38.68118,19.69819 z"
         transform="translate(-156,-207.2555)"
         opacity="0.2"
         id="path22-5" /><path
         d="m 473.688,488.035 -2.23,-4.379 c 11.12916,-8.64736 24.19788,-15.007 38.68118,-19.69819 l 2.23,4.379 c -15.67545,3.26429 -29.0116,9.30524 -38.68118,19.69819 z"
         transform="translate(-156,-207.2555)"
         opacity="0.2"
         id="path23-5" /><path
         d="m 484.09456,508.47037 -2.23,-4.379 c 11.12916,-8.64736 24.19788,-15.007 38.68118,-19.69819 l 2.23,4.379 c -15.67542,3.26426 -29.01157,9.30521 -38.68118,19.69819 z"
         transform="translate(-156,-207.2555)"
         opacity="0.2"
         id="path24-4" /><path
         d="m 714.77766,454.45093 0.15257,1.3e-4 a 25.8881,25.8881 0 0 0 24.23924,-16.23619 84.50284,84.50284 0 0 0 5.9231,-31.69393 c -0.27144,-45.91073 -37.62223,-83.57515 -83.52936,-84.21021 a 84.74394,84.74394 0 0 0 -35.27687,162.32018 25.66668,25.66668 0 0 0 28.50566,-5.28585 84.45815,84.45815 0 0 1 59.98566,-24.89413 z"
         transform="translate(-156,-207.2555)"
         fill="#e6e6e6"
         id="path25-7" /><circle
         cx="515.2464"
         cy="193.55869"
         r="27.98439"
         fill="#f9a825"
         id="circle25" /><circle
         cx="454.42624"
         cy="187.11516"
         r="3.29669"
         fill="#3f3d56"
         id="circle26" /><circle
         cx="345.59805"
         cy="190.22453"
         r="3.29669"
         fill="#3f3d56"
         id="circle27" /><circle
         cx="471.99609"
         cy="152.94948"
         r="3.29669"
         fill="#3f3d56"
         id="circle28" /><circle
         cx="471.90244"
         cy="247.97276"
         r="3.29669"
         fill="#3f3d56"
         id="circle29" /><circle
         cx="537.19934"
         cy="146.14069"
         r="3.29669"
         fill="#3f3d56"
         id="circle30" /><circle
         cx="324.20706"
         cy="236.31261"
         r="3.29669"
         fill="#3f3d56"
         id="circle31-6" /><circle
         cx="348.30472"
         cy="283.73059"
         r="3.29669"
         fill="#3f3d56"
         id="circle32" /><circle
         cx="499.69952"
         cy="289.94934"
         r="12.43751"
         fill="#ff6584"
         id="circle33" /><path
         d="m 665.02764,497.9822 a 9.32813,9.32813 0 0 1 -18.65626,0"
         transform="translate(-156,-207.2555)"
         opacity="0.2"
         id="path33" /><path
         d="m 646.37138,496.42751 a 9.32813,9.32813 0 0 1 18.65626,0"
         transform="translate(-156,-207.2555)"
         opacity="0.2"
         id="path34" /><ellipse
         cx="495.03546"
         cy="285.67395"
         rx="0.77733999"
         ry="1.16602"
         fill="#ff6584"
         id="ellipse34" /><ellipse
         cx="499.69952"
         cy="284.11926"
         rx="0.77733999"
         ry="1.16602"
         fill="#ff6584"
         id="ellipse35" /><ellipse
         cx="499.69952"
         cy="294.22476"
         rx="0.77733999"
         ry="1.16602"
         fill="#ff6584"
         id="ellipse36" /><ellipse
         cx="504.36356"
         cy="288.00598"
         rx="0.77733999"
         ry="1.16602"
         fill="#ff6584"
         id="ellipse37" /><ellipse
         cx="503.58624"
         cy="296.55679"
         rx="0.77733999"
         ry="1.16602"
         fill="#ff6584"
         id="ellipse38" /><ellipse
         cx="494.25809"
         cy="292.67007"
         rx="0.77733999"
         ry="1.16602"
         fill="#ff6584"
         id="ellipse39" /><circle
         cx="524.57452"
         cy="256.52356"
         r="12.43751"
         fill="#ff6584"
         id="circle39" /><path
         d="m 689.90265,464.5564 a 9.32813,9.32813 0 0 1 -18.65626,0"
         transform="translate(-156,-207.2555)"
         opacity="0.2"
         id="path39" /><path
         d="m 671.24639,463.00172 a 9.32813,9.32813 0 0 1 18.65626,0"
         transform="translate(-156,-207.2555)"
         opacity="0.2"
         id="path40" /><ellipse
         cx="519.91046"
         cy="252.24815"
         rx="0.77733999"
         ry="1.16602"
         fill="#ff6584"
         id="ellipse40" /><ellipse
         cx="524.57452"
         cy="250.69348"
         rx="0.77733999"
         ry="1.16602"
         fill="#ff6584"
         id="ellipse41" /><ellipse
         cx="524.57452"
         cy="260.79895"
         rx="0.77733999"
         ry="1.16602"
         fill="#ff6584"
         id="ellipse42" /><ellipse
         cx="529.23859"
         cy="254.5802"
         rx="0.77733999"
         ry="1.16602"
         fill="#ff6584"
         id="ellipse43" /><ellipse
         cx="528.46124"
         cy="263.13098"
         rx="0.77733999"
         ry="1.16602"
         fill="#ff6584"
         id="ellipse44" /><ellipse
         cx="519.13312"
         cy="259.24426"
         rx="0.77733999"
         ry="1.16602"
         fill="#ff6584"
         id="ellipse45" /><circle
         cx="549.44952"
         cy="273.62512"
         r="12.43751"
         fill="#ffbf00"
         id="circle45" /><path
         d="m 714.77766,481.658 a 9.32813,9.32813 0 0 1 -18.65626,0"
         transform="translate(-156,-207.2555)"
         opacity="0.2"
         id="path45" /><path
         d="m 696.1214,480.10329 a 9.32813,9.32813 0 0 1 18.65626,0"
         transform="translate(-156,-207.2555)"
         opacity="0.2"
         id="path46" /><ellipse
         cx="544.78546"
         cy="269.34973"
         rx="0.77733999"
         ry="1.16602"
         fill="#ffbf00"
         id="ellipse46" /><ellipse
         cx="549.44952"
         cy="267.79504"
         rx="0.77733999"
         ry="1.16602"
         fill="#ffbf00"
         id="ellipse47" /><ellipse
         cx="549.44952"
         cy="277.90051"
         rx="0.77733999"
         ry="1.16602"
         fill="#ffbf00"
         id="ellipse48" /><ellipse
         cx="554.11359"
         cy="271.68176"
         rx="0.77733999"
         ry="1.16602"
         fill="#ffbf00"
         id="ellipse49" /><ellipse
         cx="553.33624"
         cy="280.23254"
         rx="0.77733999"
         ry="1.16602"
         fill="#ffbf00"
         id="ellipse50" /><ellipse
         cx="544.00812"
         cy="276.34583"
         rx="0.77733999"
         ry="1.16602"
         fill="#ffbf00"
         id="ellipse51" /><circle
         cx="487.26199"
         cy="275.17981"
         r="12.43751"
         fill="#ffbf00"
         id="circle51" /><path
         d="m 652.59013,483.21266 a 9.32813,9.32813 0 0 1 -18.65626,0"
         transform="translate(-156,-207.2555)"
         opacity="0.2"
         id="path51" /><path
         d="m 633.93387,481.658 a 9.32813,9.32813 0 0 1 18.65626,0"
         transform="translate(-156,-207.2555)"
         opacity="0.2"
         id="path52" /><ellipse
         cx="482.59793"
         cy="270.90442"
         rx="0.77733999"
         ry="1.16602"
         fill="#ffbf00"
         id="ellipse52" /><ellipse
         cx="487.26199"
         cy="269.34973"
         rx="0.77733999"
         ry="1.16602"
         fill="#ffbf00"
         id="ellipse53" /><ellipse
         cx="487.26199"
         cy="279.4552"
         rx="0.77733999"
         ry="1.16602"
         fill="#ffbf00"
         id="ellipse54" /><ellipse
         cx="491.92606"
         cy="273.23645"
         rx="0.77733999"
         ry="1.16602"
         fill="#ffbf00"
         id="ellipse55" /><ellipse
         cx="491.14871"
         cy="281.78723"
         rx="0.77733999"
         ry="1.16602"
         fill="#ffbf00"
         id="ellipse56" /><ellipse
         cx="481.82059"
         cy="277.90051"
         rx="0.77733999"
         ry="1.16602"
         fill="#ffbf00"
         id="ellipse57" /><circle
         cx="515.2464"
         cy="280.62122"
         r="12.43751"
         fill="#ffbf00"
         id="circle57" /><path
         d="m 680.57452,488.65407 a 9.32813,9.32813 0 1 1 -18.65626,0"
         transform="translate(-156,-207.2555)"
         opacity="0.2"
         id="path57" /><path
         d="m 661.91826,487.09938 a 9.32813,9.32813 0 1 1 18.65626,0"
         transform="translate(-156,-207.2555)"
         opacity="0.2"
         id="path58" /><ellipse
         cx="510.58234"
         cy="276.34583"
         rx="0.77733999"
         ry="1.16602"
         fill="#ffbf00"
         id="ellipse58" /><ellipse
         cx="515.2464"
         cy="274.79114"
         rx="0.77733999"
         ry="1.16602"
         fill="#ffbf00"
         id="ellipse59" /><ellipse
         cx="515.2464"
         cy="284.89661"
         rx="0.77733999"
         ry="1.16602"
         fill="#ffbf00"
         id="ellipse60" /><ellipse
         cx="519.91046"
         cy="278.67786"
         rx="0.77733999"
         ry="1.16602"
         fill="#ffbf00"
         id="ellipse61" /><ellipse
         cx="519.13312"
         cy="287.22864"
         rx="0.77733999"
         ry="1.16602"
         fill="#ffbf00"
         id="ellipse62" /><ellipse
         cx="509.80499"
         cy="283.34192"
         rx="0.77733999"
         ry="1.16602"
         fill="#ffbf00"
         id="ellipse63" /><circle
         cx="534.67999"
         cy="293.83606"
         r="12.43751"
         fill="#ff6584"
         id="circle63" /><path
         d="m 700.00812,501.86892 a 9.328125,9.328125 0 1 1 -18.65625,0"
         transform="translate(-156,-207.2555)"
         opacity="0.2"
         id="path63" /><path
         d="m 681.35187,500.31423 a 9.328125,9.328125 0 1 1 18.65625,0"
         transform="translate(-156,-207.2555)"
         opacity="0.2"
         id="path64" /><ellipse
         cx="530.01593"
         cy="289.56067"
         rx="0.77733999"
         ry="1.16602"
         fill="#ff6584"
         id="ellipse64" /><ellipse
         cx="534.67999"
         cy="288.00598"
         rx="0.77733999"
         ry="1.16602"
         fill="#ff6584"
         id="ellipse65" /><ellipse
         cx="534.67999"
         cy="298.11148"
         rx="0.77733999"
         ry="1.16602"
         fill="#ff6584"
         id="ellipse66" /><ellipse
         cx="539.34406"
         cy="291.8927"
         rx="0.77733999"
         ry="1.16602"
         fill="#ff6584"
         id="ellipse67" /><ellipse
         cx="538.56671"
         cy="300.44351"
         rx="0.77733999"
         ry="1.16602"
         fill="#ff6584"
         id="ellipse68" /><ellipse
         cx="529.23859"
         cy="296.55679"
         rx="0.77733999"
         ry="1.16602"
         fill="#ff6584"
         id="ellipse69" /><circle
         cx="374.73441"
         cy="246.41808"
         r="3.29669"
         fill="#3f3d56"
         id="circle69" /><polygon
         points="464.345,366.08 385.17,344.123 388.203,332.857 467.378,354.815 "
         fill="#f9a825"
         id="polygon69" /><path
         d="m 608.73806,569.57043 a 218.26828,218.26828 0 0 1 -82.07767,0 v -11.67831 a 250.99129,250.99129 0 0 0 82.07767,0 z"
         transform="translate(-156,-207.2555)"
         fill="#f9a825"
         id="path69" /><path
         d="m 617.17595,534.53552 a 218.26828,218.26828 0 0 1 -82.07767,0 v -11.67831 a 250.99184,250.99184 0 0 0 82.07767,0 z"
         transform="translate(-156,-207.2555)"
         fill="#f9a825"
         id="path70" /><path
         d="m 645.558,548.54948 a 218.26833,218.26833 0 0 1 -82.07768,0 v -11.6783 a 250.9919,250.9919 0 0 0 82.07768,0 z"
         transform="translate(-156,-207.2555)"
         fill="#f9a825"
         id="path71" /><path
         d="m 652.46168,561.78489 a 218.26787,218.26787 0 0 1 -82.07767,0 v -11.6783 a 250.99184,250.99184 0 0 0 82.07767,0 z"
         transform="translate(-156,-207.2555)"
         fill="#f9a825"
         id="path72" /><polygon
         points="520.531,371.824 439.554,385.426 437.676,373.904 518.652,360.302 "
         fill="#f9a825"
         id="polygon72" /><path
         d="m 664.43494,580.57677 a 219.97,219.97 0 0 1 -74.58008,34.78439 l -4.80446,-10.61152 a 252.95437,252.95437 0 0 0 74.58007,-34.78439 z"
         transform="translate(-156,-207.2555)"
         fill="#f9a825"
         id="path73" /><path
         d="m 657.68866,545.16625 a 219.96991,219.96991 0 0 1 -74.58007,34.78439 l -4.80446,-10.61152 a 252.95437,252.95437 0 0 0 74.58007,-34.78439 z"
         transform="translate(-156,-207.2555)"
         fill="#f9a825"
         id="path74" /><path
         d="m 689.24339,545.87182 a 219.96977,219.96977 0 0 1 -74.58008,34.78439 l -4.80446,-10.61151 a 252.95471,252.95471 0 0 0 74.58008,-34.7844 z"
         transform="translate(-156,-207.2555)"
         fill="#f9a825"
         id="path75" /><path
         d="m 700.96153,554.97242 a 219.96991,219.96991 0 0 1 -74.58007,34.78439 L 621.577,579.14529 a 252.95437,252.95437 0 0 0 74.58007,-34.78439 z"
         transform="translate(-156,-207.2555)"
         fill="#f9a825"
         id="path76" /><rect
         x="442.9534"
         y="324.92984"
         width="3.8867199"
         height="3.8867199"
         fill="#00bf71"
         id="rect76" /><rect
         x="454.61356"
         y="392.55878"
         width="3.8867199"
         height="3.8867199"
         fill="#00bf71"
         id="rect77" /><rect
         x="392.42603"
         y="324.92984"
         width="3.8867199"
         height="3.8867199"
         fill="#00bf71"
         id="rect78" /><rect
         x="482.59793"
         y="373.12518"
         width="3.8867199"
         height="3.8867199"
         fill="#00bf71"
         id="rect79" /><rect
         x="484.92996"
         y="350.58221"
         width="3.8867199"
         height="3.8867199"
         fill="#00bf71"
         id="rect80" /><rect
         x="574.85571"
         y="545.40021"
         width="5.4414101"
         height="3.10938"
         transform="rotate(34.15572,836.88741,189.4351)"
         fill="#00bf71"
         id="rect81" /><rect
         x="620.71899"
         y="553.95099"
         width="5.4414101"
         height="3.10938"
         transform="rotate(34.15572,882.7507,197.98589)"
         fill="#00bf71"
         id="rect82" /><rect
         x="564.75024"
         y="568.72052"
         width="5.4414101"
         height="3.10938"
         transform="rotate(34.15572,826.78193,212.75542)"
         fill="#00bf71"
         id="rect83" /><rect
         x="596.62134"
         y="565.61115"
         width="5.4414101"
         height="3.10938"
         transform="rotate(124.15572,576.26141,422.20059)"
         fill="#00bf71"
         id="rect84" /><rect
         x="617.60968"
         y="571.05255"
         width="5.4414101"
         height="3.10938"
         transform="rotate(124.15572,597.2497,427.642)"
         fill="#00bf71"
         id="rect85" /><rect
         x="673.57843"
         y="552.3963"
         width="5.4414101"
         height="3.10938"
         transform="matrix(-0.56144,0.82751,-0.82751,-0.56144,1358.4058,98.06043)"
         fill="#00bf71"
         id="rect86" /></g></g></svg>
